<svg width="692" height="812" viewBox="0 0 692 812" fill="none" xmlns="http://www.w3.org/2000/svg">
<path d="M682.88 404.73C682.54 400.54 681.74 396.39 680.64 392.31C679.92 389.63 678.61 387.23 677.59 384.7C675.34 379.14 671.91 374.15 669.05 368.89C668.9 368.62 668.65 368.41 668.45 368.16C666.27 365.47 664.13 362.72 661.72 360.23C659.31 357.74 657.03 355.08 654.41 352.83C652.1 350.85 649.91 348.7 647.28 347.08C645.85 346.21 644.57 345.08 643.25 344.03C642.22 343.21 642.23 342.3 643.28 341.41C644.33 340.52 645.46 339.75 646.48 338.84C649.87 335.78 650.15 331.86 647.43 328.13C645.02 324.83 641.49 323.06 637.98 321.48C632.61 319.05 627.06 317.08 621.18 316.06C616.19 315.2 611.22 314.4 606.15 314.27C604.14 314.22 602.15 314.31 600.15 314.66C598.39 314.96 596.61 315.19 594.83 315.38C593.51 315.52 592.83 314.79 592.99 313.5C593.06 312.98 593.17 312.46 593.33 311.96C595 306.97 596.5 301.94 597.5 296.76C598.12 293.55 598.89 290.38 599.25 287.12C599.58 284.19 599.84 281.25 600.12 278.32C600.68 272.41 600.53 266.55 600.13 260.64C599.73 254.8 598.46 249.17 596.96 243.6C594.4 234.1 590.82 224.98 586.12 216.34C584.72 213.77 583.32 211.17 581.76 208.67C580.19 206.16 578.4 203.83 576.67 201.45C574.69 198.74 572.56 196.07 570.12 193.77C565.62 189.51 561.14 185.22 556.08 181.56C552.33 178.85 548.94 175.65 545.26 172.85C540.55 169.26 536.37 165.11 532.06 161.07C528.67 157.9 525.97 154.09 523.13 150.45C518.93 145.07 515.38 139.22 511.88 133.37C511.12 132.11 510.57 130.71 509.74 129.51C507.81 126.73 506.31 123.7 504.82 120.69C502.07 115.12 498.91 109.76 496.3 104.11C494.76 100.77 492.78 97.65 491.22 94.31C488.31 88.11 485.22 81.99 482.24 75.83C481.41 74.12 480.88 72.25 479.9 70.65C477.75 67.12 476.32 63.26 474.41 59.62C472.22 55.43 470.38 51.05 468.21 46.85C467.25 44.99 466.23 43.14 465.16 41.34C463.02 37.72 460.7 34.21 458.43 30.66C457.64 29.42 456.52 28.42 455.85 27.07C454.94 25.26 453.59 23.77 452.15 22.36C450.42 20.67 448.68 18.98 446.88 17.37C445.79 16.39 444.64 15.43 443.39 14.68C440.96 13.22 438.44 11.92 435.85 10.75C433.67 9.76001 431.51 9.16001 429.17 9.14001C424.01 9.11001 418.84 9.14001 413.67 9.05001C410 8.99001 406.56 10.06 403.28 11.45C400.7 12.54 397.99 13.38 395.57 14.95C392.85 16.74 389.86 18.1 387.06 19.77C385.08 20.96 383.24 22.38 381.31 23.64C378.65 25.37 376.29 27.47 373.78 29.39C369.87 32.41 365.98 35.44 362.37 38.83C361.07 40.05 359.81 41.34 358.36 42.36C356.28 43.81 354.6 45.7 352.64 47.29C349.63 49.73 346.93 52.55 344.12 55.24C340.4 58.8 336.98 62.67 333.12 66.1C331.79 67.29 330.64 68.69 329.4 69.96C325.5 73.94 321.51 77.84 317.73 81.92C315.87 83.92 313.99 85.91 312.17 87.96C307.63 93.07 302.8 97.9 298.53 103.25C295.84 106.62 292.69 109.59 290.01 112.99C287.53 116.14 284.86 119.11 282.34 122.23C278.9 126.49 275.51 130.8 272.13 135.1C269.86 137.99 267.46 140.8 265.42 143.86C263.25 147.1 261.04 150.29 258.49 153.24C258.08 153.71 257.72 154.24 257.37 154.76C255.99 156.87 254.63 159 253.22 161.09C250.45 165.18 247.46 169.12 244.91 173.34C241.97 178.21 238.55 182.75 235.74 187.72C232.57 193.29 229.12 198.71 226.15 204.41C223.48 209.55 220.7 214.61 218.74 220.07C218.42 220.96 217.95 221.81 217.45 222.61C216.87 223.52 216.08 223.76 214.99 223.44C214.49 223.3 213.97 223.13 213.54 222.85C209.27 220.04 204.49 218.42 199.73 216.72C197.42 215.89 195.09 215.38 192.66 215.19C187.5 214.79 182.32 215.16 177.17 215.02C169.79 214.82 163.47 217.94 157.05 220.86C156.67 221.03 156.34 221.32 156.01 221.57C154.56 222.61 153.08 223.63 151.66 224.72C147.52 227.95 144.25 231.96 141.86 236.59C139.33 241.49 137.93 246.79 137.61 252.34C137.52 254.03 137.36 255.71 137.16 257.38C136.94 259.23 136.7 259.41 134.73 259.53C133.68 259.6 132.61 259.52 131.57 259.69C129.77 259.99 127.9 260.53 127.13 262.31C126.36 264.12 125.64 265.97 125.45 268.02C124.76 275.55 127.04 282.41 130.13 289.05C131.32 291.61 132.25 294.34 134 296.62C134.13 296.78 134.2 297 134.28 297.19C135.94 300.82 135.45 301.58 131.54 301.71C127.78 301.84 124.11 302.69 121.11 304.91C115.44 309.07 113.54 315.13 113.85 321.9C114.07 326.61 116.05 330.87 118.22 334.97C120.09 338.51 122.56 341.67 125.03 344.8C126.66 346.86 128.44 348.78 130.27 350.68C133.94 354.5 137.93 357.91 142.41 360.72C144.64 362.11 146.95 363.38 149.21 364.74C150.76 365.68 151.16 366.71 150.77 368.47C150.7 368.78 150.59 369.08 150.49 369.38C149.2 373.43 149.09 377.44 150.95 381.38C151.27 382.04 151.43 382.78 151.73 383.45C153.01 386.24 154.49 388.89 156.92 390.89C157.4 391.29 157.84 391.75 158.28 392.21C159.47 393.45 159.64 394.34 158.84 395.89C158.26 397.02 157.56 398.07 156.95 399.18C155.69 401.49 154.4 403.78 153.21 406.12C151.77 408.92 150.38 411.75 149.02 414.6C147.61 417.54 146.04 420.44 144.93 423.5C142.98 428.94 140.87 434.34 139.3 439.93C138.37 443.26 137.73 443.55 134.6 442.14C129.23 439.73 123.53 438.66 117.75 438.15C112.18 437.67 106.59 437.67 100.99 437.97C98.2502 438.11 95.5602 438.66 92.8402 438.92C86.2102 439.53 79.7102 440.84 73.2602 442.42C71.5202 442.85 69.8202 443.41 68.1602 444.07C67.3402 444.39 66.3302 444.63 65.9902 445.68C66.7602 446.82 67.8702 446.32 68.8402 446.18C74.2802 445.36 79.7702 445.42 85.2402 445.29C88.6102 445.29 91.9902 445.12 95.3502 445.33C99.1302 445.57 102.88 446.14 106.65 446.59C106.95 446.63 107.26 446.78 107.52 446.94C107.67 447.04 107.79 447.28 107.79 447.46C107.8 447.63 107.67 447.85 107.53 447.98C107.38 448.12 107.18 448.22 106.98 448.26C102.34 449.22 97.7202 450.24 93.0602 451.12C91.2902 451.46 89.5502 451.82 87.8602 452.44C86.7802 452.84 85.6502 453.15 84.5702 453.53C81.7002 454.56 78.8202 455.56 75.9802 456.68C74.0302 457.45 72.1102 458.31 70.2302 459.27C67.8902 460.46 65.6602 461.88 63.2802 462.99C60.3102 464.38 57.5502 466.12 54.8202 467.9C51.5502 470.02 48.5302 472.47 45.4502 474.84C42.3502 477.22 39.3402 479.66 36.8502 482.71C35.9802 483.78 35.3302 484.98 34.3902 485.99C31.9702 488.6 31.0402 491.84 30.9602 495.27C30.8702 499.22 31.8202 502.8 35.7102 504.89C37.0902 505.63 38.2502 506.73 39.9202 506.95C40.7702 507.05 41.0102 507.99 40.4802 508.67C40.0202 509.25 39.5302 509.8 39.0202 510.34C36.5602 512.94 34.0802 515.53 31.6302 518.13C30.6102 519.21 29.5502 520.25 28.6902 521.44C25.2302 526.21 21.4702 530.75 18.3602 535.77C16.5202 538.72 14.6802 541.65 13.7302 545.05C13.5602 545.64 13.2302 546.2 12.9502 546.77C11.3802 549.91 10.5302 553.3 9.94018 556.71C9.44018 559.61 9.37018 562.59 9.05018 565.52C8.86018 567.34 9.08017 569.12 9.48017 570.86C10.4402 575.04 14.3102 579.49 19.9702 579.16C21.3302 579.07 22.6902 579.05 24.0402 578.68C25.6902 578.23 26.3902 578.92 26.2402 580.69C26.1302 582.05 25.9302 583.41 25.6902 584.76C25.1102 587.98 24.6902 591.21 24.8102 594.48C24.9802 599.13 25.9002 603.68 26.7202 608.25C26.8202 608.86 27.0902 609.45 27.3302 610.04C28.0002 611.69 28.6102 613.39 29.4102 614.99C30.9702 618.1 32.6702 621.07 35.9002 622.89C38.1502 624.15 40.4002 624.21 42.5402 623.1C44.7902 621.94 46.7502 620.3 47.7802 617.81C48.1802 616.84 48.6502 615.89 49.1102 614.95C49.3502 614.46 49.7302 614.08 50.3402 614.15C50.9402 614.21 51.2102 614.71 51.3902 615.19C51.6502 615.89 51.9202 616.58 52.0402 617.31C52.6402 621.42 54.2802 625.23 55.6902 629.07C57.0302 632.7 58.6302 636.26 60.5202 639.68C62.3702 643.01 64.5602 646.09 66.6802 649.24C68.5102 651.96 70.5902 654.46 72.8502 656.79C76.9202 660.99 81.7102 664.2 87.0402 666.64C89.5402 667.78 92.1302 667.86 94.7802 667.67C95.5402 667.61 96.1602 667.22 96.7802 666.78C98.3802 665.61 99.3202 664.04 99.9002 662.15C100.31 660.83 101.41 660.61 102.27 661.63C103.21 662.77 104.08 663.95 104.89 665.17C107.52 669.11 110.21 672.98 113.23 676.65C118.74 683.34 124.8 689.46 131.22 695.23C136.79 700.22 142.45 705.1 148.66 709.29C151.45 711.17 154.45 712.75 157.02 714.94C157.17 715.08 157.39 715.14 157.57 715.24C162.09 717.92 166.6 720.64 171.15 723.28C175.16 725.6 179.18 727.89 183.25 730.1C187.6 732.46 192.02 734.69 196.41 736.98C200.51 739.11 204.63 741.24 208.73 743.39C211.43 744.81 214.24 746.06 216.9 747.51C221.16 749.83 225.63 751.68 229.9 753.99C234.7 756.59 239.66 758.89 244.58 761.25C246.66 762.25 248.71 763.31 250.77 764.36C256.69 767.35 262.73 770.11 268.69 773.03C272.47 774.89 276.17 776.89 279.95 778.78C284.65 781.14 289.39 783.43 294.11 785.76C296.66 787.02 299.22 788.25 301.74 789.55C304.16 790.81 306.5 792.23 308.96 793.39C311.34 794.52 313.58 795.88 315.83 797.21C318.38 798.71 320.87 800.26 323.39 801.79C325.51 803.07 327.67 803.49 329.91 802.03C330.8 801.45 331.74 800.99 332.62 800.4C336.58 797.8 340.56 795.24 344.44 792.53C346.09 791.38 347.89 790.51 349.58 789.42C352.68 787.43 355.77 785.45 358.85 783.44C360.96 782.05 363.28 780.96 365.34 779.54C369.25 776.86 373.43 774.64 377.52 772.25C382.15 769.55 386.94 767.11 391.66 764.58C392.78 763.98 393.9 763.39 395.03 762.84C397.96 761.43 400.92 760.06 403.86 758.65C406.6 757.33 409.24 755.71 412.1 754.68C417.47 752.73 422.47 750 427.78 747.94C431.9 746.33 435.91 744.47 439.99 742.76C441.93 741.94 443.91 741.24 445.85 740.4C453.58 737.08 461.51 734.22 469.16 730.66C472.5 729.11 475.9 727.68 479.24 726.14C480.58 725.52 481.83 724.72 483.17 724.1C491.32 720.37 499.16 716.06 506.66 711.15C508.41 710.01 509.98 708.56 511.95 707.73C512.32 707.58 512.62 707.23 512.91 706.93C513.8 706.02 514.88 705.35 515.97 704.7C516.6 704.33 517.31 704.01 517.81 703.49C520.23 700.97 523.07 698.96 525.71 696.69C529.23 693.64 532.38 690.25 535.42 686.75C537.96 683.83 540.43 680.82 542.52 677.55C543.3 676.32 544.48 675.78 545.87 675.37C548.6 674.59 551.25 673.55 553.53 671.79C556.21 669.73 558.75 667.54 560.76 664.79C561.13 664.28 561.52 663.76 562.01 663.38C563.23 662.47 564.05 661.28 564.75 659.96C565.2 659.13 565.8 658.39 566.31 657.59C567.74 655.38 569.37 653.28 570.51 650.93C571.7 648.47 573 646.06 574.13 643.57C575.54 640.5 576.93 637.45 577.83 634.19C577.94 633.79 578.1 633.39 578.27 633C578.59 632.29 579.57 632.18 580.09 632.82C580.29 633.05 580.4 633.37 580.59 633.62C582.26 635.84 584.93 636.8 587.54 636.09C588.98 635.69 590.34 635.03 591.36 633.94C592.81 632.42 594.12 630.77 595.14 628.9C598.19 623.21 599.42 617.07 600.09 610.73C600.45 607.26 600.45 603.79 600.56 600.31C600.68 596.18 600.16 592.1 599.75 588.02C599.31 583.63 598.62 579.25 597.51 574.95C596.9 572.61 596.55 570.22 595.47 568C595.11 567.26 594.94 566.4 594.83 565.57C594.68 564.52 595.57 563.72 596.6 563.92C597.21 564.03 597.8 564.32 598.41 564.47C601.19 565.13 603.89 565.65 606.62 563.94C608.32 562.86 609.35 561.44 610.3 559.77C611.51 557.66 612.03 555.38 611.63 553.08C610.97 549.24 609.83 545.48 608.3 541.91C605.84 536.16 602.1 531.17 598.3 526.26C597.07 524.68 595.83 523.09 594.45 521.66C590.58 517.63 586.57 513.78 582.16 510.33C580.66 509.16 579.06 508.15 577.6 506.96C575.94 505.59 576.05 504.56 577.99 503.78C578.57 503.55 579.19 503.38 579.78 503.16C581.27 502.58 582.63 501.78 583.89 500.82C586.79 498.62 587.79 495.62 587.18 492.14C586.8 489.92 585.61 488.04 584.01 486.43C581.21 483.59 577.79 481.8 574.09 480.44C568.63 478.42 562.97 477.24 557.2 476.59C554.48 476.28 551.75 476.08 549.01 475.95C545.96 475.8 542.9 475.77 539.85 475.67C538.16 475.63 536.49 475.58 534.8 475.5C534.65 475.49 534.43 475.28 534.38 475.12C534.33 474.95 534.35 474.66 534.47 474.54C534.83 474.17 535.21 473.76 535.66 473.54C537.09 472.87 538.53 472.23 540 471.66C546.07 469.28 552.15 466.9 558.54 465.43C559.98 465.09 561.4 464.72 562.82 464.31C563.22 464.2 563.57 463.95 563.92 463.72C564.23 463.52 564.17 462.87 563.86 462.63C562.97 461.93 561.92 461.89 560.87 461.85C554.95 461.61 549.07 462 543.19 462.71C541.11 462.97 539 463.17 536.95 463.6C530.22 465 523.73 467.07 517.69 470.4C516.41 471.11 514.9 470.83 514.81 468.9C514.67 466.16 514.45 463.43 514.1 460.71C513.13 452.98 511.75 445.31 509.94 437.73C509.5 435.88 509.03 434.06 508.42 432.26C507.61 429.87 507.07 427.39 506.44 424.94C506.34 424.54 506.33 424.11 506.33 423.68C506.35 422.39 506.95 421.76 508.27 421.7C510.37 421.61 512.48 421.58 514.58 421.45C517.21 421.29 519.84 420.9 522.26 419.83C526.98 417.76 530.92 414.81 533.63 410.24C535.52 407.03 536.32 403.64 536.41 400.03C536.46 397.92 536.44 395.81 535.91 393.73C535.67 392.79 535.69 391.83 536.17 390.96C536.44 390.5 536.85 390.12 537.46 390.26C538.04 390.4 538.41 390.8 538.35 391.39C538.26 392.33 538.15 393.28 537.89 394.19C537.36 396.03 537.12 397.9 537.16 399.81C537.25 404.24 537.25 408.67 537.45 413.09C537.54 415.08 537.75 417.12 538.31 419.02C539.98 424.7 542.15 430.17 545.6 435.05C548.06 438.53 551.11 440.74 555.66 440.27C557.93 440.03 559.01 440.77 559.65 442.95C560.67 446.4 562.34 449.57 563.78 452.84C564.42 454.29 565.13 455.71 566 457.02C569.14 461.75 572.25 466.47 576.38 470.49C579.87 473.87 583.42 477.11 587.44 479.87C591.07 482.36 595.04 484.05 599.27 484.98C605.05 486.25 610.33 484.92 614.8 480.89C615.43 480.32 616.01 479.72 616.67 479.19C617.33 478.64 618.05 478.73 618.69 479.26C619.83 480.19 620.97 481.13 622.09 482.09C624.27 483.97 626.87 484.82 629.68 484.75C632.86 484.67 635.99 484.09 638.7 482.26C640.52 481.03 642.31 479.71 644 478.28C645.36 477.14 646.63 475.85 647.79 474.49C650.53 471.28 652.76 467.69 655.1 464.19C655.45 463.67 655.75 463.11 656.01 462.53C656.71 461 657.41 459.47 658.04 457.91C659.22 454.98 660.61 452.1 661.44 449.07C662.92 443.57 663.87 437.96 663.77 432.21C663.72 429.78 663.75 427.36 663.79 424.94C663.82 422.52 664.81 421.74 667.21 422.21C667.72 422.3 668.21 422.51 668.72 422.64C669.63 422.86 670.56 423.08 671.48 423.28C676.82 424.45 680.91 420.23 681.89 416.62C683.01 412.73 683.2 408.72 682.88 404.73ZM507.43 496.32C509.01 495.46 510.68 494.83 512.41 494.32C522.37 491.32 532.52 489.85 542.95 490.03C548.14 490.12 553.25 490.68 558.37 491.33C559.62 491.48 560.85 491.84 562.05 492.21C562.9 492.47 563.01 493.38 562.36 493.95C561.71 494.53 560.97 494.9 560.14 495.11C556.08 496.21 552.02 497.3 547.95 498.4C547.55 498.5 547.08 498.49 546.72 498.66C543.69 500.12 540.47 501.2 537.76 503.27C537.42 503.52 537.14 503.84 536.87 504.16C536.27 504.83 536.29 505.52 536.96 506.09C537.28 506.37 537.61 506.65 537.99 506.8C541.02 508.03 543.98 509.45 547.31 509.71C551.16 510 554.73 511.24 558.23 512.77C566.14 516.25 573.03 521.18 578.85 527.61C580.11 529.01 581.53 530.29 582.83 531.66C583.7 532.57 584.6 533.47 585.13 534.65C585.3 535.04 585.53 535.44 585.25 535.85C584.89 536.35 584.36 536.31 583.83 536.15C583.32 536 582.75 535.96 582.32 535.69C578.84 533.49 574.86 532.34 571.29 530.31C569.48 529.28 567.46 528.56 565.49 527.83C564.29 527.39 563.07 527.1 562.02 526.33C561.5 525.95 560.91 525.76 560.24 525.84C559.73 525.9 559.29 526.44 559.36 526.94C559.46 527.69 559.77 528.36 560.24 528.94C560.89 529.77 561.51 530.63 562.27 531.35C566.46 535.34 569.5 540.1 571.85 545.35C573.1 548.13 574.46 550.86 575.63 553.68C576.89 556.69 578.06 559.74 579.12 562.82C580.55 567 581.84 571.23 583.16 575.45C583.41 576.25 583.6 577.08 583.7 577.92C583.95 579.91 584.38 581.86 584.83 583.82C585.89 588.46 586.24 593.19 586.39 597.93C586.4 598.33 586.24 598.76 586.09 599.14C586.03 599.27 585.76 599.34 585.57 599.39C585.49 599.41 585.33 599.34 585.29 599.26C585.1 598.89 584.9 598.52 584.78 598.12C583.83 595.01 582.88 591.88 581.95 588.76C581.22 586.33 580.26 584 578.92 581.84C578.76 581.58 578.53 581.32 578.17 581.49C578 581.58 577.82 581.73 577.73 581.9C577.12 583.04 576.99 584.28 576.95 585.57C576.88 587.88 576.7 590.2 576.61 592.51C576.52 595.37 575.75 598.12 575.16 600.89C574.59 603.57 573.97 606.23 573.34 608.9C572.44 612.69 571.4 616.44 570.03 620.07C568.54 624 566.82 627.85 565.1 631.68C563.19 635.9 560.67 639.8 558.81 644.04C558.6 644.51 558.28 644.95 558.02 645.41C557.74 645.87 557.39 646.39 556.83 646.25C556.04 646.06 556.11 645.3 556.19 644.68C556.65 641.33 557.14 638 557.63 634.67C557.67 634.36 557.83 634.05 557.81 633.74C557.59 629.92 558.61 626.2 558.62 622.39C558.63 621.56 558.61 620.71 558.54 619.87C558.51 619.46 558.35 619 557.9 618.86C557.44 618.71 557.14 619.01 556.89 619.38C555.63 621.32 554.43 623.28 553.47 625.42C551.67 629.47 549.26 633.2 546.67 636.79C545.5 638.4 544.18 639.9 543.27 641.7C542.93 642.35 542.45 642.93 542 643.51C539.47 646.74 537.01 650.03 534.28 653.11C531.91 655.78 529.94 658.76 527.96 661.74C525.69 665.15 523.53 668.65 521.08 671.92C519.39 674.18 517.36 676.21 515.33 678.21C512.04 681.46 508.65 684.62 505.27 687.78C502.57 690.3 499.64 692.55 496.57 694.6C493.6 696.6 490.64 698.62 487.49 700.36C485.39 701.53 483.4 702.91 481.23 703.99C474.46 707.37 467.81 711 460.81 713.95C457.33 715.43 453.82 716.87 450.38 718.49C447.43 719.88 444.32 720.89 441.33 722.23C433.65 725.68 425.83 728.81 418.14 732.25C414.11 734.06 409.95 735.61 406.11 737.87C404.59 738.77 402.85 739.37 401.19 739.94C398.47 740.89 396.13 742.49 393.57 743.69C389.75 745.47 385.94 747.28 382.22 749.24C378.41 751.25 374.38 752.88 370.86 755.41C370.27 755.84 369.56 756.12 368.9 756.44C367.39 757.17 365.86 757.89 364.53 758.95C364.04 759.34 363.47 759.66 362.88 759.86C361.76 760.24 360.81 760.87 359.87 761.55C357.99 762.92 355.87 763.88 353.89 765.07C351 766.79 348.29 768.8 345.43 770.59C342.57 772.38 339.84 774.32 337.24 776.47C335.87 777.61 334.29 778.5 332.82 779.51C331.81 780.2 330.8 780 329.82 779.54C327.34 778.37 324.89 777.17 322.43 775.97C318.16 773.91 313.89 771.85 309.64 769.76C302.93 766.45 296.01 763.64 289.25 760.44C289.06 760.35 288.85 760.29 288.68 760.17C285.23 757.9 281.34 756.49 277.7 754.6C272 751.65 266.55 748.23 260.69 745.59C259.25 744.94 257.95 744.02 256.57 743.25C255.92 742.9 255.29 742.5 254.6 742.28C253.48 741.91 252.5 741.32 251.47 740.78C246.24 738.08 240.98 735.4 235.74 732.72C233.4 731.52 231.06 730.3 228.72 729.11C224.69 727.06 220.66 725.02 216.63 722.98C213.35 721.32 210.08 719.62 206.76 718.02C201.74 715.6 196.87 712.9 192.03 710.12C190.39 709.18 188.58 708.58 186.94 707.61C182.58 705.06 178.13 702.65 173.74 700.13C172.11 699.18 170.46 698.21 168.95 697.08C165.9 694.82 162.52 693.08 159.57 690.65C157.96 689.33 156.16 688.21 154.41 687.07C150.52 684.53 146.86 681.68 143.39 678.64C139.37 675.12 135.22 671.69 131.74 667.56C130.38 665.95 128.82 664.51 127.36 663C125.84 661.41 124.35 659.82 123.03 658.01C121.87 656.43 120.52 654.93 119.36 653.32C115.77 648.37 112.32 643.35 109.31 638.03C105.99 632.15 103.33 625.94 100.49 619.83C97.1002 612.54 94.4202 605.02 92.2202 597.32C90.3502 590.74 88.3102 584.2 87.1302 577.45C86.8502 575.81 86.4902 574.11 84.7902 573.18C83.6802 574.11 83.3302 575.31 83.2302 576.59C82.9802 579.64 82.6102 582.66 82.5002 585.73C82.2602 591.84 81.7602 597.93 81.4202 604.03C81.1402 609.09 81.1602 614.15 81.5702 619.2C81.6802 620.57 81.7902 621.93 81.8502 623.29C82.0402 627.41 82.5702 631.46 83.5902 635.46C83.9302 636.78 84.1202 638.14 84.3502 639.49C84.4102 639.89 84.4602 640.38 83.9202 640.52C83.4302 640.65 83.1302 640.26 82.9002 639.94C81.6902 638.09 80.4102 636.28 79.3402 634.37C76.8602 629.96 74.7102 625.39 72.7902 620.71C72.0702 618.94 71.6002 617.11 71.0102 615.31C69.4602 610.6 68.1502 605.84 67.2102 600.98C66.8902 599.33 66.6002 597.67 66.6202 595.96C66.6502 593.43 65.8502 590.96 65.9502 588.41C66.0302 586.52 65.8602 584.62 65.9802 582.72C66.4702 575.37 67.1602 568.05 68.5902 560.79C69.7302 555.1 71.3902 549.56 72.7302 543.92C73.0202 542.7 73.3302 541.47 73.5702 540.23C73.6702 539.73 73.6802 539.12 73.2002 538.79C72.7002 538.45 72.1702 538.72 71.7602 539.07C70.7902 539.89 69.7302 540.64 68.9302 541.59C67.1102 543.77 65.3602 545.99 63.7002 548.32C61.5002 551.42 59.6702 554.74 57.5402 557.87C56.0602 560.04 54.8302 562.38 53.5702 564.69C51.4302 568.66 49.2902 572.63 47.2802 576.67C45.5502 580.15 44.0102 583.72 42.4002 587.27C42.2102 587.69 41.9502 588.04 41.5002 587.98C41.0302 587.93 40.8702 587.47 40.7902 587.05C40.7402 586.74 40.7002 586.42 40.6902 586.11C40.5202 583.04 40.6502 579.98 41.1302 576.96C41.6502 573.64 42.3402 570.33 43.4402 567.12C44.9902 562.65 46.3102 558.08 48.0902 553.71C49.5202 550.21 51.4502 546.91 53.2602 543.58C54.7702 540.81 56.2502 538 58.0702 535.43C61.1102 531.14 63.7302 526.54 67.1502 522.51C68.1002 521.39 68.8102 520.08 69.6202 518.85C69.9402 518.37 70.6602 517.87 70.0202 517.26C69.4902 516.75 68.8102 517.18 68.2502 517.43C65.7402 518.55 63.5102 520.14 61.3002 521.74C57.3002 524.63 53.3402 527.58 49.3902 530.52C47.2902 532.09 45.2202 533.69 43.1202 535.28C42.8702 535.47 42.6102 535.68 42.3202 535.78C41.7602 535.98 41.2802 536.55 40.5802 536.15C40.1402 535.89 40.2802 535.26 40.9902 534.24C41.8202 533.03 42.6402 531.81 43.4802 530.59C43.7802 530.15 44.0402 529.66 44.4402 529.34C46.1002 528.01 47.3902 526.47 48.4502 524.56C49.3402 522.95 50.8802 521.68 52.2202 520.33C54.2902 518.24 56.4502 516.22 58.5402 514.14C63.2402 509.46 68.1702 505.05 73.2102 500.75C77.7702 496.86 82.4102 493.05 87.1802 489.43C89.6102 487.57 91.9102 485.57 94.3102 483.68C94.9002 483.22 95.4502 482.75 95.7302 482.02C95.8802 481.64 95.6402 481.09 95.2302 481.07C94.0702 480.99 92.9202 480.92 91.7602 481.14C86.2802 482.21 80.8102 483.27 75.3102 484.27C72.8202 484.72 70.3102 485.01 67.8102 485.34C67.4102 485.4 66.9202 485.32 66.7902 484.82C66.6502 484.32 67.0202 484.01 67.3802 483.81C69.1302 482.84 70.8702 481.87 72.6402 480.95C77.7902 478.27 83.1502 476.04 88.5302 473.91C94.1002 471.71 99.9402 470.19 105.88 469.33C114.45 468.1 123.08 467.66 131.72 467.75C134.25 467.77 136.79 467.76 139.31 467.88C141.57 467.99 143.4 467.31 144.94 465.61C147.72 462.53 150.04 459.21 151.38 455.23C152.92 450.64 154.44 446.04 156.37 441.59C157.33 439.38 157.9 436.99 158.87 434.78C161.03 429.88 162.92 424.85 165.55 420.17C166.21 418.98 166.66 417.67 167.24 416.43C168.11 414.62 169.08 412.87 170.27 411.25C170.59 410.82 170.98 410.42 171.14 409.93C171.86 407.69 173.2 405.79 174.38 403.81C176.1 400.93 177.91 398.1 179.92 395.41C181.87 392.8 183.62 390.03 185.55 387.41C187.67 384.53 189.89 381.72 192.1 378.9C193.46 377.16 194.53 375.21 196.13 373.66C196.59 373.22 197.01 372.75 197.42 372.27C198.25 371.32 199.24 371.24 200.27 371.8C201.1 372.25 201.9 372.77 202.64 373.34C203.56 374.05 204.45 374.79 205.3 375.59C207.63 377.76 210.37 379.33 213.08 380.91C215.81 382.49 218.66 383.88 221.64 384.95C222.63 385.3 223.59 385.73 224.57 386.09C231.55 388.7 238.86 389.73 246.2 390.41C249.75 390.75 253.37 390.49 256.94 390.51C258.52 390.52 260.11 390.55 261.69 390.58C262.8 390.6 263.48 391.21 263.75 392.21C263.99 393.12 264.14 394.07 264.22 395.01C264.89 402.15 267.94 408.09 273.25 412.88C274.66 414.14 276.15 415.32 277.59 416.55C281.12 419.56 285.29 421.26 289.66 422.56C296.73 424.66 303.97 424.93 311.27 424.5C314.42 424.31 317.57 424.1 320.71 423.64C325.3 422.97 329.83 422.08 334.32 420.87C337.98 419.88 341.72 419.17 345.25 417.76C346.33 417.33 347.37 416.84 348.44 416.4C349.84 415.83 350.59 416.22 350.98 417.7C351.07 418.01 351.01 418.35 351.12 418.64C351.3 419.13 351.71 419.22 352.13 418.99C353.07 418.47 353.79 417.73 354.47 416.9C355.68 415.44 356.93 414.01 358.21 412.62C359.62 411.08 360.64 411.19 361.67 412.92C362.43 414.18 363.18 415.46 363.91 416.73C366.82 421.74 371.03 425.56 375.39 429.23C376.42 430.1 377.67 430.72 378.79 431.51C379.34 431.9 379.29 432.72 378.71 433.13C378.2 433.49 377.63 433.78 377.1 434.12C376.46 434.53 375.98 435.07 375.67 435.77C375.24 436.75 375.95 437.79 377 437.65C377.72 437.55 378.47 437.41 379.14 437.14C383.15 435.55 387.22 435.7 391.25 436.82C397.42 438.53 403.7 439.04 410.04 438.63C416.64 438.19 422.19 435.33 426.62 430.44C427.65 429.3 428.6 427.98 429.19 426.48C429.38 425.99 429.62 425.52 429.87 425.06C431.07 422.89 431.87 422.77 433.79 424.31C436.16 426.22 438.52 428.17 441.02 429.92C442.56 431 444.31 431.83 446.04 432.57C451 434.69 456.18 436.08 461.55 436.75C463.54 437 465.48 437.46 467.51 437.4C472.78 437.28 477.69 436.02 482.17 433.15C484.57 431.61 485.41 431.95 486.29 434.56C487.19 437.26 488.04 439.97 488.4 442.82C488.58 444.27 489.25 445.65 489.47 447.1C490.14 451.68 491.29 456.19 491.16 460.87C491.14 461.6 491.19 462.35 491.28 463.08C492.26 470.51 492.01 478.02 492.56 485.48C492.77 488.31 493.05 491.12 493.84 493.88C494.92 497.71 498.95 499.37 502.36 498.38C504.21 497.88 505.85 497.17 507.43 496.32ZM160.72 375.16C161.22 373.99 161.16 372.7 161.49 371.5C161.65 370.87 162.26 370.5 162.94 370.47C163.67 370.43 164.41 370.46 165.6 370.46C166.52 370.4 167.84 370.56 169.19 370.92C170.38 371.25 171.7 371.07 172.96 371.16C173.82 371.24 174.2 372 173.73 372.78C172.98 374.02 172.28 375.32 171.32 376.4C170.9 376.87 170.49 377.35 170.29 377.9C169.47 380.11 167.55 380.61 165.58 381.02C164.69 381.21 163.92 380.9 163.42 380.07C162.55 378.64 162.03 377.02 160.9 375.73C160.77 375.59 160.66 375.31 160.72 375.16ZM535.41 372.2C534.35 375.14 532.19 377.37 529.61 379.12C528.1 380.14 527.43 380.07 525.96 378.9C524.24 377.52 522.59 376.04 520.81 374.72C519.2 373.53 517.49 372.5 515.8 371.43C511.8 368.88 507.69 366.55 503.25 364.83C502.47 364.53 501.75 364.06 500.99 363.71C499.47 363.03 497.92 362.42 496 362.81C497.23 365.74 499.15 367.98 501.42 369.84C503.8 371.79 505.72 374.16 507.91 376.26C510.67 378.9 512.87 381.99 515.14 385.01C516.02 386.18 516.6 387.56 517.27 388.87C518.47 391.23 519.32 393.72 519.98 396.27C521.16 400.81 519.05 404.32 514.51 405.18C508.74 406.27 503.05 406.09 497.44 403.89C494.79 402.85 492.17 401.71 489.63 400.49C487.02 399.23 484.56 397.51 482.65 395.19C479.85 391.76 476.87 388.48 473.71 385.38C471.84 383.54 469.86 381.81 467.85 380.12C467.26 379.61 466.58 378.98 465.51 379.27C465.2 380.89 465.56 382.5 466.47 383.75C467.74 385.48 468.56 387.41 469.45 389.3C471.16 392.92 472.99 396.5 474.38 400.23C475.81 404.07 477.03 408.01 477.22 412.16C477.28 413.31 477.21 414.48 477.12 415.63C476.89 418.34 475.33 420.04 472.9 421.05C467.94 423.11 462.82 423.19 457.68 421.97C454.62 421.24 451.62 420.21 448.61 419.26C447.81 419 447.01 418.67 446.3 418.23C441.44 415.29 436.45 412.52 432.18 408.74C429.34 406.24 426.86 403.34 424.21 400.62C423.4 399.8 422.72 398.83 421.6 398.37C421.15 398.18 420.76 398.24 420.55 398.68C419.98 399.85 419.9 401.04 420.08 402.36C420.67 406.88 420.48 411.38 419.19 415.8C418.88 416.84 418.25 417.61 417.62 418.48C414.88 422.17 411.09 423.68 406.7 423.98C401.93 424.31 397.24 423.9 392.7 422.27C390.82 421.59 388.94 420.89 387.08 420.15C385.21 419.4 383.53 418.34 381.9 417.14C379.87 415.65 377.63 414.44 376 412.43C374.07 410.06 371.97 407.85 370.42 405.2C369.3 403.31 367.66 401.72 366.94 399.57C365.94 396.59 364.06 393.95 363.35 390.83C363.2 390.14 362.73 389.5 362.3 388.9C361.48 387.79 360.49 387.94 359.95 389.28C359.68 389.95 359.54 390.69 359.44 391.41C359.2 393.18 359.03 394.97 358.81 396.75C358.71 397.58 358.58 398.42 358.43 399.24C358.09 401.2 357.03 402.37 355 402.84C353.25 403.23 351.54 403.73 349.77 404.04C346.66 404.56 343.58 405.29 340.48 405.95C337.5 406.59 334.51 407.23 331.53 407.89C326.98 408.9 322.35 409.11 317.72 409.28C312.77 409.45 307.82 409.22 302.86 408.88C296.27 408.42 290.32 406.21 284.84 402.68C281.9 400.79 280.15 397.87 279.13 394.59C278 390.99 277.85 387.35 279.14 383.72C280.86 378.85 282.7 374.04 285.64 369.72C287.24 367.37 288.63 364.88 290.52 362.73C290.86 362.34 291.09 361.84 291.33 361.38C291.67 360.74 292.21 360.11 291.6 359.36C291.14 358.8 290.46 358.85 289.85 358.9C289.23 358.96 288.57 359.05 288.02 359.31C285.07 360.72 282.03 361.93 279.3 363.75C275.75 366.11 272.69 368.95 270.14 372.35C269.44 373.28 268.63 374.12 267.98 375.08C267.04 376.42 265.9 376.89 264.21 376.8C259.26 376.51 254.34 375.95 249.41 375.4C245.54 374.97 241.66 374.6 237.79 374.2C231.04 373.5 224.45 372.24 218.38 369.01C218.19 368.91 218 368.81 217.81 368.73C211.9 366.47 207.03 362.67 202.51 358.36C201.75 357.64 201.08 356.81 200.42 355.99C199.29 354.6 198.26 353.13 197.07 351.78C196.3 350.89 195.67 349.96 195.15 348.91C194.73 348.07 194.26 347.22 193.71 346.47C192.64 345 191.89 343.42 191.35 341.68C190.76 339.77 189.82 337.97 189.24 336.06C188.69 334.25 188.42 332.36 188 330.51C187.75 329.38 187.46 328.26 187.16 327.14C187.06 326.74 186.92 326.29 186.44 326.2C185.67 326.07 185.72 326.81 185.53 327.22C184.58 329.31 184.71 331.58 184.74 333.77C184.8 338.09 185.14 342.4 185.76 346.68C186.06 348.78 186.53 350.85 187.54 352.73C188.71 354.93 188.23 356.74 186.56 358.44C185.46 359.57 184.42 360.76 183.39 361.97C182.62 362.87 181.64 363.43 180.59 363.96C179.75 364.38 179.03 364.33 178.19 363.99C173.69 362.18 169.39 359.96 165.12 357.65C161.01 355.41 157.64 352.2 153.82 349.58C150.08 347.02 146.72 343.98 143.41 340.87C139.78 337.47 136.3 333.97 133.21 330.09C131.36 327.77 130.09 325.08 129.07 322.32C128.18 319.9 128.93 317.5 130.71 316.4C131.79 315.74 133.02 315.38 134.32 315.4C137.05 315.43 139.77 315.31 142.5 315.92C145.17 316.5 147.91 316.79 150.61 317.24C152.8 317.6 154.87 318.39 156.93 319.18C159.48 320.16 162.16 320.67 164.83 321.16C165.73 321.32 166.83 321.26 167.38 320.31C167.94 319.36 167.39 318.48 166.87 317.67C166.59 317.23 166.3 316.77 165.93 316.41C163.5 314.09 161.31 311.52 158.65 309.42C156.44 307.66 154.09 306.07 152.04 304.07C149.44 301.52 147.46 298.58 145.71 295.44C144.59 293.42 143.49 291.39 142.28 289.4C140.02 285.71 138.25 281.76 136.95 277.62C136.63 276.61 136.25 275.63 135.97 274.62C135.7 273.72 135.46 272.79 135.63 271.82C135.72 271.29 136.4 270.92 136.83 271.21C137.17 271.45 137.53 271.7 137.79 272.01C139.21 273.7 140.66 275.37 141.99 277.14C143.5 279.16 144.85 281.3 146.32 283.35C148.46 286.33 150.51 289.39 152.87 292.19C154.35 293.94 155.81 295.81 157.83 297.01C158.57 297.45 159.5 298.31 160.37 297.59C161.04 297.03 160.76 295.99 160.57 295.18C160.33 294.16 159.98 293.15 159.62 292.17C157.7 286.92 155.56 281.78 153.12 276.75C151.98 274.38 151.23 271.85 151.14 269.16C151.01 265.37 150.49 261.62 150.8 257.79C151.21 252.69 152.37 247.8 154.67 243.25C155.85 240.93 157.38 238.8 159.43 237.04C161.12 235.6 162.81 234.24 164.69 233.07C168.14 230.93 171.8 229.57 175.86 228.97C179.65 228.41 183.46 228.31 187.21 228.54C192.12 228.83 197.08 229.33 201.76 231.2C203.9 232.06 206.26 232.32 208.32 233.45C208.6 233.6 208.91 233.68 209.18 233.84C209.9 234.24 209.86 235.17 209.09 235.6C208.17 236.11 207.28 236.71 206.29 237.04C203.67 237.93 201.54 239.78 198.99 240.78C198.71 240.89 198.39 241.05 198.19 241.27C196.2 243.45 193.67 245.09 191.96 247.52C191.6 248.04 191.27 248.59 191.02 249.16C190.79 249.7 190.3 250.3 190.91 250.89C191.33 251.29 191.9 251.17 192.42 251.12C193.17 251.04 193.8 250.67 194.45 250.31C196.68 249.08 199.04 248.23 201.53 247.69C208.8 246.11 216.12 245.42 223.48 246.9C225.85 247.37 228.17 248.12 230.44 248.94C231.51 249.32 232.44 250.11 233.37 250.79C234.01 251.25 233.99 252.24 233.37 252.71C232.7 253.22 231.95 253.61 231.26 254.1C228.85 255.8 226.47 257.54 224.7 259.96C224.45 260.3 224.19 260.63 224 261C223.68 261.59 224.06 262.38 224.71 262.45C225.23 262.49 225.76 262.51 226.27 262.42C228.66 262.01 231.05 261.62 233.42 261.1C237.66 260.19 241.95 259.84 246.27 259.59C249.78 259.38 253.21 259.99 256.65 260.4C259.77 260.78 262.86 261.56 265.94 262.28C269.55 263.12 272.9 264.73 276.18 266.4C278.52 267.6 280.83 268.9 282.95 270.45C286 272.69 288.95 275.08 291.35 278.05C292.34 279.28 293.29 280.54 294.32 281.74C295.76 283.43 295.76 285.16 294.62 286.98C294.22 287.61 293.85 288.24 293.4 288.82C292.58 289.85 292.27 291.07 292.02 292.31C291.91 292.83 291.87 293.43 292.35 293.76C292.82 294.07 293.42 293.88 293.86 293.65C295.16 292.95 296.41 292.2 297.67 291.43C298.12 291.16 298.46 290.6 298.93 290.5C301.34 290.02 303.27 288.44 305.59 287.76C312.45 285.76 319.44 285.08 326.55 285.7C327.7 285.8 328.85 285.99 329.99 286.18C332.06 286.52 334.14 286.89 336.21 287.26C338.18 287.62 340.12 288.11 342.04 288.64C347.05 290.02 351.76 292.13 356.38 294.41C358.99 295.71 361.53 297.24 363.79 299.17C365.3 300.47 366.89 301.69 368.42 302.98C371.02 305.16 373.06 307.87 375.34 310.35C376.49 311.61 377.22 313.15 377.95 314.65C378.41 315.6 378.56 316.66 378.47 317.74C378.42 318.37 378.37 319 378.38 319.63C378.41 320.32 379.07 320.81 379.69 320.63C379.99 320.54 380.3 320.46 380.58 320.3C382.87 319 385.22 317.79 387.42 316.35C392.42 313.12 397.73 310.6 403.51 309.19C406.99 308.35 410.52 307.68 414.12 307.6C418.03 307.51 421.92 307.5 425.83 307.5C429.8 307.49 433.44 308.92 437.16 310.13C441.02 311.39 444.31 313.68 447.77 315.66C449.22 316.49 450.49 317.66 451.69 318.83C453.95 321.02 456.65 322.72 458.5 325.38C459.57 326.91 461.08 328.17 462.76 329.1C463.33 329.41 463.82 329.23 464.09 328.7C464.68 327.56 464.92 326.33 464.87 325.04C464.78 322.72 464.79 320.4 464.65 318.08C464.6 317.17 464.8 316.45 465.42 315.8C469.36 311.68 473.55 307.86 478.17 304.5C480.83 302.56 483.59 300.9 486.51 299.41C489.45 297.9 492.55 297.67 495.71 297.6C496.21 297.59 496.75 297.78 497.21 298.01C498.26 298.53 499.33 298.94 500.49 299.12C501.14 299.22 501.62 299.62 502.15 299.98C507.48 303.56 509.26 308.78 508.41 314.8C507.78 319.36 507.03 323.94 505.3 328.3C504.31 330.79 502.69 332.27 500.3 333.15C496.64 334.52 493.03 335.96 489.69 338C487.99 339.04 486.26 340.06 484.62 341.2C483.85 341.72 483.26 342.51 482.62 343.2C482.35 343.48 482.66 344.17 483.04 344.19C483.67 344.22 484.31 344.27 484.92 344.16C486.79 343.82 488.7 343.88 490.54 343.27C491.13 343.08 491.79 343.07 492.42 343.05C497.37 342.84 502.3 342.45 507.26 342.42C514.29 342.39 520.86 344.03 526.98 347.37C529.08 348.51 531.17 349.73 532.86 351.58C535.24 354.2 536.35 357.28 536.83 360.69C537.35 364.66 536.74 368.51 535.41 372.2ZM542.54 338.91C541.72 338.63 541.1 338.06 540.44 337.53C536.23 334.25 531.61 331.83 526.3 330.92C524.33 330.58 522.48 329.77 520.44 329.64C518.95 329.55 518.3 328.19 519.1 326.84C520.7 324.16 521.41 321.17 522.01 318.21C523.52 310.82 523.3 303.57 519.36 296.79C517.93 294.33 516.67 291.79 514.5 289.85C511.41 287.07 507.99 284.95 504.1 283.42C500.57 282.03 496.91 281.97 493.24 281.67C491.87 281.56 490.5 281.58 489.2 281.09C488.25 280.72 487.62 280.1 487.33 279.11C486.48 276.18 485.52 273.27 484.76 270.32C483.93 267.06 482.76 263.91 481.87 260.66C480.18 254.44 478.66 248.22 478.6 241.73C478.59 240.05 478.36 238.37 478.28 236.68C478.23 235.74 478.21 234.79 478.31 233.85C478.41 232.9 479.28 232.48 480.19 232.9C484.23 234.75 487.96 237.07 491.23 240.12C493.31 242.06 495.66 243.69 497.54 245.84C501.36 250.18 505.33 254.39 508.41 259.35C510.69 263.01 513.31 266.45 515.73 270.02C516.73 271.5 517.65 273.04 518.49 274.61C520.18 277.77 521.81 280.95 523.43 284.13C526.82 290.81 529.55 297.77 532.42 304.67C534.2 308.93 535.54 313.37 537.25 317.66C538.45 320.7 539.03 323.94 540.46 326.9C540.82 327.65 540.98 328.5 541.23 329.3C541.94 331.61 542.42 333.99 543.43 336.21C543.69 336.77 543.77 337.41 543.85 337.74C543.92 338.68 543.19 339.14 542.54 338.91ZM544.12 297.85C543.22 295.85 542.63 293.7 541.88 291.61C540.71 288.34 539.45 285.12 537.84 282.02C536.68 279.78 535.78 277.42 534.77 275.1C534.6 274.71 534.5 274.29 534.29 273.93C530.91 268.23 528.17 262.16 524.53 256.6C520.89 251.04 516.93 245.75 512.78 240.57C508.41 235.11 503.27 230.42 498.12 225.78C492.61 220.82 486.28 217.15 479.19 214.75C471.95 212.31 464.62 211.65 457.08 212.47C453.11 212.91 449.16 213.5 445.25 214.45C443.42 214.9 441.48 214.87 439.61 215.16C435.3 215.82 431.95 213.9 429.22 210.97C426.56 208.12 424.37 204.88 422.21 201.63C420.7 199.36 419.07 197.16 417.56 194.88C414.88 190.85 411.93 186.99 409.66 182.72C406.31 176.4 402.81 170.14 399.87 163.6C398.36 160.25 397.13 156.78 395.69 153.4C395.4 152.72 395.18 151.99 394.78 151.4C394.4 150.85 394.2 149.82 393.26 150.1C392.47 150.34 392.49 151.29 392.36 151.98C392.24 152.58 392.31 153.24 392.37 153.86C392.67 156.9 392.79 159.98 393.36 162.98C394.54 169.18 395.39 175.46 397.25 181.53C397.93 183.74 398.49 185.99 399.13 188.21C400.83 194.2 403.19 199.93 405.73 205.61C408.99 212.9 413.39 219.39 419.09 224.98C421.03 226.89 423.13 228.7 425.62 229.91C429.71 231.9 433.86 233.69 438.6 233.08C439.53 232.96 440.5 233.05 441.43 233.19C442.22 233.31 442.71 234.49 442.38 235.23C441.31 237.61 438.52 239.13 435.91 238.68C433 238.17 430.23 237.28 427.49 236.11C423.03 234.22 418.8 231.88 414.49 229.69C411.86 228.37 409.38 226.76 406.81 225.31C404.89 224.23 402.96 223.15 400.99 222.17C400.17 221.76 399.32 221.25 397.79 221.43C399.56 223.99 401.67 225.75 403.71 227.53C408.63 231.81 413.6 236.03 418.64 240.17C420.83 241.97 423.22 243.53 425.55 245.16C426.75 246 427.81 247.02 429.15 247.71C431.46 248.91 433.82 249.64 436.41 249.58C437.47 249.55 438.52 249.49 439.58 249.49C442.95 249.52 445.27 247.71 447.35 245.29C450.04 242.16 451.45 238.47 452.45 234.55C452.66 233.73 452.9 232.92 453.17 232.13C453.34 231.63 453.57 231.15 453.87 230.71C454.43 229.85 455.26 229.42 456.28 229.51C457.06 229.58 457.72 230.55 457.76 231.69C457.87 234.74 457.87 237.8 458.03 240.85C458.36 247.16 458.87 253.43 460.23 259.64C461.38 264.91 462.75 270.08 464.82 275.05C466.04 277.96 467.31 280.85 468.67 283.7C469.07 284.53 469.82 285.19 470.4 285.93C471.54 287.38 471.6 288.07 470.64 289.65C469.87 290.91 469.06 292.14 467.91 293.13C465.47 295.22 464.08 298.14 462.12 300.6C461.81 300.99 461.75 301.57 461.53 302.05C461.14 302.91 460.78 303.79 460.29 304.6C458.77 307.09 458.19 306.84 456.44 305.3C455.33 304.33 454.13 303.47 452.96 302.57C443.27 295.23 432.51 290.93 420.21 291.02C416.4 291.05 412.68 291.67 408.99 292.69C405.09 293.77 401.42 295.36 397.96 297.35C395.53 298.75 392.99 300.15 391.11 302.36C390.97 302.52 390.83 302.69 390.67 302.82C388.55 304.39 387.33 305.02 385.78 301.88C384.32 298.91 382.24 296.42 379.88 294.13C378.83 293.1 377.84 292 376.79 290.96C374.48 288.67 372.04 286.52 369.18 284.9C366.61 283.45 364.11 281.9 361.56 280.43C360.56 279.85 359.54 279.29 358.48 278.83C351.41 275.69 344.05 273.66 336.36 272.59C329 271.57 321.87 272.32 314.79 274.28C313.26 274.7 311.75 275.16 310.39 275.99C309.86 276.32 309.25 276.56 308.64 276.73C306.95 277.23 306.03 276.76 305.43 275.14C305.32 274.85 305.24 274.54 305.17 274.23C303.5 267.45 298.99 262.56 294.13 258C292.55 256.52 290.69 255.22 288.64 254.31C287.87 253.97 287.2 253.43 286.47 253.02C285.56 252.5 284.66 251.91 283.69 251.51C280.47 250.23 277.26 248.87 273.97 247.81C269.11 246.25 264.06 245.78 258.98 246.01C256.04 246.14 253.08 246.1 250.19 246.86C249.48 247.05 248.72 247.04 247.99 247.05C246.76 247.06 245.58 246.63 244.92 245.66C243.13 243 240.24 241.8 237.81 240C235.25 238.1 232.24 237.05 229.24 236.05C228.74 235.89 228.2 235.83 227.72 235.64C226.42 235.1 225.92 233.73 226.64 232.5C227.86 230.42 229.02 228.27 230.46 226.34C232.42 223.73 234.19 220.99 236.05 218.31C238.38 214.93 240.51 211.43 243.04 208.19C244.25 206.62 245.17 204.83 246.31 203.18C251.64 195.35 257.29 187.74 262.95 180.14C264.83 177.61 266.58 174.96 268.85 172.73C269.38 172.21 269.81 171.59 270.2 170.98C272.95 166.59 276.39 162.75 279.67 158.77C283.95 153.57 288.22 148.36 292.51 143.17C294.06 141.3 295.62 139.45 297.23 137.65C301.38 133.03 305.29 128.21 309.75 123.86C310.94 122.71 311.83 121.25 313.01 120.04C315.29 117.71 317.48 115.28 319.61 112.81C323.12 108.73 327.15 105.15 330.77 101.19C333.48 98.24 336.3 95.42 339.15 92.61C344.46 87.35 349.67 81.99 355.01 76.76C359.67 72.18 364.39 67.68 369.19 63.24C371.81 60.81 374.63 58.59 377.36 56.3C380.66 53.53 383.94 50.72 387.31 48.04C392.42 43.97 397.76 40.18 403.5 37.08C408.38 34.45 413.38 31.82 419.15 31.48C421.71 31.33 424.19 31.57 426.65 32.26C427.89 32.6 429.03 33.17 430.05 33.91C433.2 36.22 436.01 38.94 438.56 41.88C439.72 43.21 440.55 44.86 441.4 46.42C442.97 49.29 444.67 52.06 446.1 55.01C448.3 59.54 450.44 64.11 452.96 68.49C453.96 70.22 454.66 72.11 455.53 73.92C458.3 79.72 461.12 85.49 463.87 91.3C467.29 98.53 470.87 105.67 474.64 112.74C476.67 116.53 478.79 120.3 480.51 124.26C481.31 126.07 482.37 127.83 483.49 129.44C485.18 131.88 486.46 134.54 487.89 137.1C489.89 140.69 492.08 144.16 494.12 147.73C495.68 150.47 497.42 153.11 499.12 155.77C502.62 161.28 506.77 166.3 510.97 171.28C513.35 174.09 516.03 176.63 518.31 179.53C519.66 181.25 521.37 182.71 523.05 184.13C526.98 187.47 530.88 190.86 535.02 193.93C537.38 195.68 539.85 197.3 542.1 199.19C545.56 202.08 549.08 204.9 552.36 207.99C555.89 211.32 558.79 215.2 561.62 219.16C564.88 223.74 567.37 228.72 569.65 233.79C571.77 238.49 573.71 243.29 575.01 248.28C576.94 255.72 578.85 263.19 579.71 270.85C580.24 275.56 580.66 280.28 580.81 285.03C581 290.72 580.84 296.41 580.91 302.1C580.96 306.81 579.86 311.3 578.31 315.69C577.57 317.78 576.92 319.88 576.36 322.02C575.77 324.26 574.94 326.42 574.25 328.63C572.87 333.06 571.98 337.61 571.02 342.15C570.18 346.19 569.63 350.24 569.3 354.35C569.23 355.3 569.28 356.25 569.22 357.2C569.18 357.93 569.09 358.66 568.94 359.38C568.84 359.88 568.65 360.42 568.06 360.6C567.45 360.79 567.11 360.38 566.75 359.97C564.64 357.48 562.63 354.91 560.95 352.1C559.5 349.66 557.74 347.41 556.29 344.96C554.07 341.24 552.98 337.26 552.52 333.01C551.95 327.78 551.19 322.58 549.92 317.46C549.34 315.11 548.96 312.72 548.28 310.41C546.99 306.2 545.94 301.91 544.12 297.85ZM669.19 406.99C669.07 408.01 667.84 408.46 666.97 407.88C666.88 407.82 666.78 407.77 666.71 407.69C665.57 406.28 663.93 405.42 662.68 404.17C659.1 400.6 655.66 396.89 652.16 393.25C650.84 391.88 649.53 390.51 648.13 389.22C647.12 388.28 646.2 387.29 645.27 386.28C643.12 383.94 640.73 381.88 637.75 380.63C636.97 380.3 636.05 379.8 635.38 380.46C634.59 381.22 635.09 382.24 635.49 383.07C636.87 385.92 638.37 388.7 639.71 391.56C641.86 396.13 643.78 400.77 644.96 405.74C646.16 410.78 646.78 415.89 647.43 421C647.62 422.46 647.57 423.95 647.61 425.42C647.66 427.64 647.7 429.85 647.74 432.06C647.78 434.93 647.4 437.78 646.62 440.51C645.17 445.56 643.7 450.6 641.42 455.41C639.87 458.67 637.89 461.62 636.14 464.73C635.26 466.3 633.83 467.47 632.48 468.62C631.36 469.57 630.05 469.3 629.17 468.12C628.91 467.78 628.65 467.43 628.52 467.04C627.65 464.44 626.41 462.01 625.51 459.41C624.43 456.32 623.39 453.24 622.51 450.09C621.57 446.74 620.83 443.35 620.35 439.9C619.88 436.45 618.89 433.11 617.66 429.84C616.69 427.27 615.63 424.76 613.96 422.55C613.64 422.13 613.37 421.66 613.03 421.27C611.74 419.78 610.48 420 609.72 421.88C609.4 422.65 609.21 423.5 609.12 424.32C608.81 427.25 608.5 430.2 608.31 433.14C607.97 438.4 607.85 443.68 607.37 448.92C606.94 453.64 606.6 458.39 605.42 463C605.11 464.23 604.8 465.47 604.31 466.63C603.59 468.34 601.76 468.96 600.09 468.15C599.62 467.93 599.16 467.63 598.77 467.29C594.31 463.45 589.79 459.74 585.92 455.2C582.12 450.76 579.12 445.84 576.05 440.95C574.78 438.91 573.93 436.6 572.99 434.37C571.18 430.1 569.3 425.85 567.74 421.5C566.61 418.33 565.88 415.02 565.09 411.75C564.38 408.78 563.7 405.79 563.22 402.78C562.8 400.08 562.64 397.33 562.44 394.61C562.33 393.25 562.38 391.87 561.8 390.58C561.45 389.78 560.59 389.64 560.07 390.37C559.59 391.05 559.18 391.79 558.8 392.54C557.19 395.65 556.47 399.08 555.31 402.34C554.67 404.13 554.27 405.99 553.74 407.81C553.59 408.31 553.39 408.8 553.15 409.27C552.79 409.98 551.79 409.98 551.34 409.26C550.95 408.63 550.65 407.97 550.55 407.21C550.03 403.46 549.26 399.74 549.08 395.93C548.94 392.99 548.19 390.08 548.5 387.42C548.05 382.9 549.03 378.93 550.58 375.08C551.13 373.7 551.6 372.34 551.9 370.88C552.33 368.72 553 366.6 553.59 364.48C553.77 363.84 554.69 363.61 555.14 364.12C556.6 365.78 557.98 367.51 559.47 369.13C563.17 373.18 567.23 376.79 571.65 380.1C575.58 383.03 579.99 384.99 584.11 387.51C584.95 388.03 585.89 388.16 586.83 388.27C587.58 388.36 587.91 387.96 587.95 387.14C588 385.81 587.41 384.67 586.87 383.54C585.83 381.36 584.7 379.21 583.58 377.07C583.07 376.11 582.82 375.1 582.85 374.03C583.06 365.91 582.5 357.79 583.28 349.68C583.56 346.86 583.34 343.99 584.16 341.22C584.52 340.01 584.74 338.74 585.24 337.59C586.82 333.91 588.14 332.58 592.2 331.25C595.89 330.04 599.64 328.94 603.55 328.57C604.7 328.47 605.85 328.23 606.99 328.07C609.54 327.73 612.03 328.39 614.52 328.7C616.93 329.01 619.31 329.42 621.69 329.86C622.83 330.07 623.93 330.4 625.04 330.74C625.44 330.86 625.79 331.16 625.8 331.64C625.82 332.32 625.28 332.5 624.77 332.62C624.26 332.74 623.73 332.79 623.21 332.83C620.68 332.97 618.15 333.16 615.63 333.21C612.65 333.26 609.76 333.59 606.93 334.59C605.51 335.1 604.58 335.93 603.98 337.23C602.92 339.53 603.81 342.22 606.21 342.98C609.63 344.06 612.82 345.72 616.23 346.83C618.12 347.44 619.95 348.31 621.75 349.16C626.32 351.3 630.77 353.6 635.01 356.43C640.32 359.97 644.94 364.21 649.24 368.83C651.6 371.35 653.81 374.03 655.9 376.83C658.88 380.81 661.33 385.08 663.75 389.37C666.46 394.17 668.33 399.31 669.09 404.79C669.22 405.52 669.27 406.28 669.19 406.99Z" fill="#6ABD45"/>
<path d="M182.2 468.95C183.06 469.76 183.69 470.72 184.2 471.76C184.72 472.82 185.39 473.75 186.19 474.6C186.63 475.05 186.98 475.58 187.33 476.1C188.82 478.27 190.19 480.52 191.8 482.59C194.51 486.07 197.26 489.52 200.2 492.81C203.14 496.1 206.32 499.19 210.08 501.61C212.39 503.09 214.66 504.61 217.15 505.77C218.43 506.35 218.65 507.52 217.82 508.61C217.69 508.77 217.52 508.9 217.37 509.06C214.35 512.31 212.56 516.18 211.67 520.49C211.41 521.73 211.3 522.99 211.03 524.22C210.64 526.02 209.84 526.72 208.06 527C206.91 527.18 205.77 527.16 204.61 526.91C202.86 526.55 201.08 526.25 199.3 526.07C198.52 525.99 197.33 525.72 196.99 526.52C196.61 527.44 197.83 527.77 198.44 528.23C199.18 528.8 200.03 529.26 200.89 529.66C206.18 532.08 211.19 535 216.05 538.15C219.13 540.15 221.96 542.55 224.77 544.93C226.77 546.62 228.49 548.65 230.46 550.38C233.69 553.26 236.36 556.67 239.25 559.85C241.24 562.03 243.03 564.38 244.8 566.75C247.45 570.29 250.24 573.72 253 577.17C256.54 581.61 260.13 585.98 264.37 589.81C268.16 593.22 272.45 595.46 277.37 596.59C278.73 596.9 280.07 597.05 281.43 596.72C281.94 596.6 282.05 596.15 281.91 595.73C281.78 595.34 281.54 594.96 281.27 594.65C278.83 591.89 276.42 589.1 273.6 586.68C271.94 585.26 270.49 583.58 269 581.96C268.37 581.28 268.6 580.21 269.41 579.8C270.06 579.47 270.77 579.18 271.47 579.07C276.63 578.25 281.4 576.33 286.05 574.06C286.96 573.61 288.08 572.39 288.83 573.2C289.72 574.16 288.39 575.23 287.8 576.09C285.59 579.32 284.45 582.84 284.3 586.74C284.21 588.98 284.64 591.13 285.04 593.31C285.41 595.31 286.23 596.87 287.9 598C288.16 598.18 288.44 598.34 288.66 598.56C289.51 599.45 289.66 600.58 288.97 601.71C288.42 602.61 287.87 603.51 287.62 604.55C287.4 605.46 287.98 606.11 288.83 605.76C291.45 604.68 294.08 603.58 296.65 602.41C300.86 600.47 305.24 599.57 309.86 600.16C311.21 600.33 312.52 600.81 313.85 601.11C315.51 601.49 317.03 602.12 318.43 603.16C320.9 604.98 323.57 606.43 326.6 607.18C328.28 607.6 329.9 607.69 331.59 607.29C334.58 606.59 337.41 605.47 340.23 604.26C343.13 603.03 345.89 601.46 349.02 600.75C350.85 600.33 352.5 600.41 354.25 601.11C355.9 601.78 357.66 602.2 359.39 602.67C362.01 603.38 364.65 603.04 367.21 602.39C369.49 601.8 371.59 602.05 373.65 603.06C374.22 603.34 374.79 603.63 375.38 603.84C376.58 604.26 377.78 604.66 378.98 605.04C379.51 605.21 380.07 605.23 380.43 604.75C380.77 604.28 380.6 603.72 380.35 603.25C380.01 602.6 379.68 601.91 379.18 601.39C377.63 599.8 377.14 597.73 376.49 595.74C376.01 594.27 376.29 592.95 377.54 592.06C380.28 590.1 382.75 587.82 385.63 586C389.45 583.58 393.08 580.86 396.77 578.24C397.19 577.95 397.51 577.5 397.87 577.12C398.67 576.28 399.47 575.44 400.25 574.59C401.88 572.8 403.59 571.08 405.1 569.2C407.54 566.17 409.68 562.91 412.23 559.95C414.57 557.24 416.93 554.62 419.69 552.32C422.48 550.01 425.5 548.07 428.92 546.96C434.16 545.26 439.04 542.78 443.96 540.39C446.04 539.38 448.17 538.48 450.25 537.47C454.8 535.25 459.43 533.28 464.44 532.34C465.58 532.12 466.69 531.81 467.82 531.51C468.44 531.35 468.96 530.99 469.41 530.53C469.79 530.13 469.77 529.48 469.33 529.16C468 528.21 466.53 527.76 464.87 527.86C461.08 528.11 457.27 528.22 453.51 528.6C450.28 528.93 447 529.09 443.88 530.24C443.01 530.57 442.03 530.67 441.09 530.75C439.98 530.84 439.27 530.28 439.07 529.19C438.83 527.95 438.57 526.7 438.52 525.45C438.36 521.45 437.13 517.81 435.09 514.41C434.82 513.96 434.62 513.47 434.42 512.98C433.2 510 430.76 507.89 428.9 505.37C427.86 503.96 426.29 502.94 424.99 501.73C424.69 501.45 424.42 501.12 424.2 500.77C423.72 499.97 424.15 499.02 425.03 498.78C425.78 498.57 426.48 498.71 427.21 498.88C428.23 499.12 429.27 499.31 430.26 499.52C431.05 499.4 431.79 499.35 432.5 499.18C432.99 499.06 433.09 498.55 432.95 498.16C432.77 497.69 432.47 497.24 432.13 496.84C431.6 496.19 430.94 495.64 430.43 494.97C429.88 494.26 430.09 493.26 430.87 492.77C431.3 492.49 431.83 492.22 432.31 492.22C433.8 492.21 435.24 491.99 436.71 491.78C437.3 491.7 438.07 491.75 438.53 492.07C440.02 493.08 441.79 493.73 443.09 494.87C445.43 496.93 447.99 498.86 449.46 501.77C449.98 502.8 450.73 503.72 451.71 504.38C451.94 504.53 452.33 504.59 452.6 504.51C453.03 504.39 453.25 503.98 453.29 503.55C453.32 503.24 453.26 502.92 453.22 502.6C452.68 499.02 451.5 495.68 449.68 492.54C448.79 491 449.17 490.19 450.96 490.05C452.22 489.95 453.49 490 454.74 490.02C455.9 490.05 457.05 490.17 458.22 490.17C461.8 490.18 465.05 491.21 468.01 493.21C468.53 493.56 469.03 493.96 469.58 494.25C470.41 494.7 471.34 495.27 472.2 494.47C473.01 493.7 472.6 492.69 472.39 491.79C472.3 491.39 472 491.05 471.76 490.7C471 489.56 470.24 488.43 469.45 487.31C468.14 485.49 466.45 484.03 464.62 482.8C462.88 481.64 460.92 480.8 459.05 479.82C458.25 479.4 456.99 479.21 457.31 477.98C457.56 477.05 458.71 477.18 459.52 477.12C461.4 476.98 463.3 476.91 465.2 476.85C466.07 476.82 466.85 476.6 467.55 476.07C468.01 475.72 468.1 475.15 467.7 474.71C466.62 473.51 465.27 472.71 463.8 472.09C461.35 471.06 458.75 470.62 456.14 470.3C451.62 469.74 447.1 469.66 442.58 470.34C438.81 470.91 435.23 472.24 431.69 473.51C428.35 474.71 424.94 475.91 421.85 477.77C420.31 478.7 418.65 479.36 416.96 479.98C416.07 480.3 415.17 480.68 414.42 481.24C412.31 482.81 409.73 483.68 407.93 485.69C407.79 485.84 407.58 485.91 407.4 486.02C407.31 486.08 407.21 486.11 407.11 486.16C406.71 486.33 406.29 486.46 405.95 486.1C405.61 485.74 405.71 485.27 405.95 484.94C407.19 483.25 408.26 481.37 409.79 479.99C411.18 478.72 412.52 477.36 413.97 476.15C416.81 473.8 419.62 471.44 422.44 469.08C423 468.62 423.67 468.18 423.65 467.33C423.64 466.75 422.38 466.41 421.12 466.68C420.09 466.91 419.08 467.22 418.07 467.53C413.29 468.96 408.99 471.46 404.68 473.89C401.37 475.76 398.52 478.26 395.73 480.84C392.63 483.71 389.77 486.81 387.09 490.04C384.88 492.72 383.01 495.67 381.1 498.56C378.15 503.05 375.3 507.6 372.4 512.12C369.32 516.9 365.97 521.46 362.1 525.66C359.73 528.23 357.09 530.48 354.5 532.78C352.55 534.52 350.24 535.45 347.81 536.18C347.2 536.37 346.55 536.52 345.96 536.21C344.66 535.51 343.3 534.88 342.5 533.54C340.58 530.38 338.79 527.17 337.31 523.78C336.71 522.4 336.48 520.96 336.38 519.48C336.16 515.9 335.86 512.33 335.73 508.75C335.67 506.81 335.39 504.96 334.6 503.21C333.08 499.84 333.34 496.41 334.26 492.99C335.89 486.97 338.22 481.22 341.26 475.76C342.4 473.71 344.03 472.01 345.15 470.01C346.57 467.46 348.96 465.8 350.53 463.43C353.32 461.46 355.26 458.65 357.69 456.32C358.53 455.52 359.69 454.74 359.32 453.23C358.1 452.73 357.09 453.5 356.02 453.82C355.62 453.94 355.26 454.19 354.89 454.4C352.13 455.94 349.38 457.47 346.61 459.01C345.7 459.53 344.61 459.89 343.92 460.62C342.73 461.84 341.33 462.78 340.09 463.91C338.77 465.11 337.44 466.3 336.38 467.78C334.23 470.77 332.1 473.75 330.62 477.16C329.79 479.09 328.63 480.85 328.08 482.92C327.66 484.46 327.37 485.98 327.23 487.57C327.1 489.1 326 489.57 324.81 488.68C323.97 488.05 323.12 487.41 322.35 486.69C319.04 483.61 315.84 480.43 312.42 477.45C310.12 475.45 307.77 473.54 305.44 471.58C304.4 470.7 303.32 469.86 302.17 469.13C300.99 468.38 300.08 468.32 299.88 468.79C299.55 469.56 299.9 470.25 300.2 470.9C300.46 471.46 300.86 471.98 301.28 472.44C303.1 474.49 305.05 476.42 306.74 478.56C310.27 482.98 314.42 486.86 317.78 491.46C320.07 494.59 322.68 497.46 324.46 500.98C326.78 505.57 328.15 510.34 328.49 515.45C328.78 519.73 328.27 523.87 326.98 527.94C326.69 528.84 326.42 529.75 326.47 530.72C326.53 531.78 326.79 532.03 328.01 532.04C328.91 532.06 329.23 532.4 328.96 533.1C328.43 534.48 327.7 535.77 326.78 536.92C325.27 538.77 323.92 539 321.85 537.75C321.4 537.47 321.01 537.13 320.6 536.8C317.19 534 313.62 531.39 310.47 528.29C307.62 525.49 304.76 522.69 302.15 519.68C299.95 517.13 297.41 514.86 295.64 511.95C295.49 511.69 295.22 511.49 294.99 511.27C293.24 509.62 291.39 508.04 289.75 506.29C285.47 501.71 280.61 497.88 275.42 494.43C274.99 494.14 274.53 493.84 274.04 493.69C272.91 493.35 271.96 492.74 270.95 492.16C266.97 489.88 262.51 488.95 258.14 487.79C257.62 487.65 257.07 487.8 256.69 488.23C256.28 488.7 256.38 489.24 256.7 489.68C258.31 491.88 259.59 494.33 261.7 496.15C262.18 496.55 262.62 497.03 262.98 497.53C263.38 498.1 264.04 498.64 263.59 499.48C263.31 500 262.76 499.96 261.61 499.33C260.51 498.71 259.44 498.01 258.32 497.44C255.21 495.87 252.15 494.23 249.22 492.36C247.45 491.22 245.61 490.18 243.84 489.04C239.88 486.47 235.79 484.06 232.68 480.38C232.48 480.15 232.24 479.92 231.97 479.77C229.53 478.44 227.69 476.38 225.72 474.48C224.36 473.16 223.04 471.79 221.42 470.76C221.08 470.54 220.72 470.19 220.28 470.42C219.7 470.71 219.82 471.31 219.86 471.8C219.99 473.28 220.41 474.69 220.94 476.08C221.9 478.64 222.82 481.22 223.74 483.8C223.92 484.29 224.05 484.81 224.13 485.31C224.21 485.82 223.58 486.32 223.08 486.19C222.68 486.08 222.22 485.98 221.92 485.73C220 484.1 218.1 482.43 216.22 480.76C215.75 480.34 215.42 479.72 214.9 479.41C212.4 477.96 210.61 475.71 208.58 473.73C205.94 471.18 203.43 468.48 200.85 465.87C199.82 464.81 198.75 463.79 197.44 463.07C196.98 462.81 196.5 462.52 196.01 462.96C195.59 463.35 195.48 463.85 195.61 464.41C195.93 465.73 196.15 467.08 196.69 468.37C197.37 470.01 197.82 471.75 198.32 473.46C198.44 473.86 198.38 474.33 198 474.61C197.62 474.91 197.18 474.79 196.84 474.55C194.94 473.23 192.98 471.98 191.18 470.52C188.38 468.28 185.33 466.41 182.37 464.4C181.95 464.12 181.42 463.97 180.92 463.83C180.15 463.62 179.66 464.12 179.88 464.85C180.41 466.37 181.01 467.83 182.2 468.95ZM366.11 593.3C364.85 594.48 363.44 595.39 361.71 595.62C360.47 595.78 359.23 596.16 357.95 595.89C357.55 595.8 357.28 595.27 357.51 594.94C358.1 594.11 359.17 593.35 358.47 592.19C357.86 591.16 356.63 591.34 355.61 591.21C354.26 591.05 352.89 590.95 351.53 590.82C348.57 590.84 346.02 591.84 343.48 593.34C340.68 594.99 337.82 596.57 334.8 597.84C331.08 599.4 327.59 598.49 324.1 597.13C320.68 595.79 317.49 593.9 314.04 592.58C312.17 591.87 310.38 591.67 308.49 592.13C305.81 592.78 303.12 593.22 300.38 593.35C299.65 593.38 298.91 593.44 298.17 593.4C296.92 593.34 295.56 593.49 294.57 592.55C293.25 591.3 292.4 589.7 291.84 587.98C291.72 587.63 291.83 587.12 292 586.77C292.46 585.82 292.88 584.8 293.57 584.03C296.53 580.74 299.58 577.44 303.52 575.36C306.37 573.86 309.49 572.63 312.9 573.24C313.51 573.35 314.14 573.52 314.7 573.79C316.47 574.62 316.68 574.67 317.89 573.52C318.72 572.72 319.58 571.9 320.25 570.97C321.32 569.5 322.69 568.42 324.05 567.25C327.96 563.88 332.31 564.07 336.83 565.31C337.84 565.59 338.64 566.37 339.44 567.05C342.51 569.62 345.61 572.15 348.71 574.68C349.27 575.14 349.88 575.57 350.52 575.91C351.38 576.36 352.25 576.62 353.17 575.88C354.28 574.99 355.47 575.1 356.71 575.78C359.96 577.59 362.97 579.57 364.86 582.99C366.12 585.27 366.63 587.71 367.21 590.16C367.5 591.38 367.01 592.44 366.11 593.3ZM374.32 536.94C375.02 536.48 375.66 535.89 376.41 535.54C380.12 533.85 379.9 534.32 380.43 537.5C380.73 539.35 381.01 541.16 381.82 542.95C383.27 546.16 385.66 548 388.83 549.22C392.31 550.55 395.54 549.88 398.49 548.12C402.42 545.77 405.6 542.56 407.84 538.52C409.47 535.57 410.84 532.52 411.44 529.17C411.74 527.48 411.77 525.82 411.72 523.77C411.97 521.47 411.44 518.94 410.58 516.42C410.1 515.01 409.41 513.73 408.58 512.51C407.28 510.63 407.63 508.67 409.53 507.27C410.37 506.65 411.3 506.13 412.26 505.68C414.13 504.81 415.79 505.11 417.58 506.27C421.68 508.93 424.47 512.68 426.72 516.84C428.8 520.69 429.94 524.83 428.9 529.29C428.27 532 426.9 534.36 425.22 536.54C424.43 537.56 423.37 538.25 422.2 538.78C420.18 539.69 418.36 540.95 416.5 542.13C414.98 543.1 413.63 544.25 412.39 545.55C411.3 546.69 410.08 547.72 409.03 548.88C407.2 550.89 405.43 552.97 403.65 555.03C400.83 558.3 398.06 561.61 395.07 564.74C393.19 566.72 391.13 567.57 388.35 567.44C385.49 567.3 383.04 566.51 380.77 564.81C377.09 562.04 377.05 562.08 374.96 557.98C373.02 554.18 371.95 550.14 371.86 545.86C371.83 544.49 371.74 543.12 371.76 541.76C371.8 539.73 372.6 538.09 374.32 536.94ZM303.69 547.29C303.69 547.29 318.96 554.68 325.61 549.26C332.26 543.84 334.23 542.61 334.23 542.61C334.23 542.61 339.77 553.13 352.28 549.56C352.44 549.52 352.62 549.47 352.78 549.41C354.59 548.85 356.52 548 358.61 546.8C358.61 546.8 357.13 567.98 374.62 579.31C374.62 579.31 374.37 584.48 370.68 582.02C366.98 579.55 366.24 569.7 348.26 568.22C348.26 568.22 332.25 547.78 317.47 567.73C317.47 567.73 307.66 562.33 290.95 573.09C292.13 572.14 305.57 560.94 303.69 547.29ZM223.09 521.99C223.39 521.1 223.87 520.25 224.15 519.36C224.67 517.68 225.98 516.58 226.91 515.21C228.78 512.45 231.24 512.1 234.1 512.79C235.84 513.21 237.51 513.87 239.24 514.35C242.67 515.3 246.13 516.19 249.57 517.1C250.86 517.44 251.31 518.24 250.81 519.45C250.24 520.8 249.51 522.09 249.02 523.48C248.01 526.28 247.45 529.15 248.22 532.16C248.66 533.88 248.62 535.69 249.35 537.38C252.09 543.78 256.47 548.11 263.54 549.53C266.69 550.17 269.59 549.81 272.49 548.7C273.47 548.32 274.45 547.93 275.41 547.5C275.98 547.24 276.61 547 277.05 546.58C279.62 544.09 282.23 541.63 283.09 537.92C283.51 536.07 284.05 534.26 284.15 532.35C284.26 530.07 285.78 529.21 287.83 530.66C289.46 531.81 290.95 533.15 292.48 534.44C293.17 535.02 293.25 535.89 293.37 536.75C293.65 538.96 293.3 541.16 293.21 543.37C293.13 545.04 292.99 546.75 292.59 548.37C291.15 554.31 288.04 559.17 282.93 562.65C280.75 564.14 278.41 565.38 275.95 566.33C274.1 567.05 272.08 567.24 270.08 567.36C268.62 567.45 267.14 567.39 265.66 567.39V567.48C264.29 567.56 262.92 567.61 261.57 567.73C259.7 567.89 258.28 567.27 257.32 565.62C256.8 564.71 256.31 563.75 255.69 562.92C252.12 558.23 248.51 553.58 244.9 548.92C244.13 547.91 243.27 546.99 242.23 546.24C241.81 545.93 241.35 545.62 241.06 545.2C238.52 541.61 234.91 539.16 231.58 536.44C229.57 534.8 227.2 533.55 224.9 532.29C223.66 531.62 223.03 530.7 222.66 529.43C221.88 526.87 222.29 524.42 223.09 521.99Z" fill="#6ABD45"/>
<path d="M490.86 515.2C489.91 515.65 488.93 516.05 487.93 516.39C485.83 517.11 483.73 517.78 481.45 517C480.4 516.64 479.37 517.07 478.41 517.54C477.74 517.86 477.59 518.53 478.1 519.08C478.46 519.46 478.91 519.75 479.27 520.12C479.8 520.67 479.64 521.4 478.95 521.62C478.46 521.77 477.94 521.89 477.42 521.94C474.48 522.18 471.53 522.33 468.6 522.64C467.34 522.77 465.85 522.6 465.12 524.09C465.98 525.18 467.31 525.15 468.48 525.51C468.87 525.63 469.32 525.61 469.74 525.61C471.45 525.61 473.08 526.05 474.73 526.42C476.18 526.75 476.56 527.47 475.78 528.67C474.32 530.9 473.33 533.33 472.51 535.84C472.32 536.43 472.13 537.07 472.15 537.68C472.19 538.5 472.18 539.5 472.98 539.96C473.94 540.52 474.8 539.92 475.55 539.31C476.29 538.71 477.02 538.1 477.71 537.45C478.63 536.58 479.44 535.58 480.43 534.81C481.91 533.66 483.24 532.26 485.19 531.84C492.82 530.23 499.95 531.04 506.71 535.38C510.61 537.89 513.23 541.35 515.38 545.17C516.8 547.68 517.91 550.5 518.02 553.53C518.04 554.05 518.17 554.57 518.32 555.07C519.28 558.22 519.57 561.49 519.78 564.74C520.19 571.16 519.97 577.6 519.69 584.02C519.61 585.91 519.43 587.83 518.99 589.66C517.82 594.46 516.9 599.35 514.77 603.88C514.41 604.64 514.09 605.43 513.86 606.24C513.6 607.17 513.14 607.97 512.66 608.79C510.81 611.97 509.18 615.29 506.81 618.14C506.74 618.22 506.7 618.32 506.64 618.41C503.96 622.89 500.44 626.66 496.6 630.12C491.99 634.27 487.24 638.25 482.06 641.73C477.77 644.61 473.21 647.02 468.98 649.98C468.64 650.22 468.21 650.32 467.83 650.51C465.01 651.92 462.01 652.96 459.43 654.85C459.18 655.03 458.87 655.14 458.58 655.27C454.19 657.3 449.79 659.31 445.4 661.35C440.92 663.44 436.39 665.46 431.99 667.7C430.12 668.65 428.14 669.34 426.3 670.4C423.02 672.29 419.66 674.06 416.18 675.55C413.18 676.84 410.42 678.57 407.42 679.89C404.26 681.28 401.35 683.25 398.32 684.94C396.85 685.76 395.48 686.75 394.05 687.64C390.83 689.63 387.43 691.35 384.38 693.62C383.03 694.63 381.62 695.55 380.18 696.42C373.95 700.2 368.43 704.94 362.6 709.27C360.08 711.14 357.71 713.26 355.39 715.39C352.06 718.44 348.49 721.23 345.37 724.53C344.08 725.89 342.6 727.08 341.3 728.45C340.21 729.59 338.95 730.57 337.54 731.31C337.3 731.43 336.86 731.5 336.71 731.37C336.53 731.21 336.41 730.77 336.5 730.53C337.24 728.45 337.89 726.33 338.84 724.34C340.9 720.02 341.72 715.35 342.96 710.79C343.84 707.54 344.24 704.17 345.02 700.91C346.19 696.06 346.7 691.15 346.95 686.22C347.18 681.8 347.08 677.37 347.06 672.94C347.04 668.51 346.88 664.08 346.89 659.65C346.91 652.78 346.18 645.99 344.96 639.23C344.32 635.69 343.1 632.31 342.31 628.82C341.33 624.47 339.49 620.44 337.83 616.34C337.36 615.19 336.53 614.18 335.8 613.14C335.45 612.64 335.06 612.08 334.31 612.11C333.81 612.13 333.33 612.98 333.31 613.89C333.31 614.1 333.3 614.31 333.33 614.52C333.78 617.54 334.21 620.56 334.68 623.58C335 625.66 335.5 627.72 335.7 629.81C336.38 637.04 337.03 644.28 337.55 651.53C338.06 658.58 338.59 665.63 338.3 672.7C338.3 673.65 338.35 674.6 338.29 675.55C337.81 683.65 337.9 691.78 337.1 699.87C336.77 703.23 336.72 706.62 336.25 709.95C335.12 718.09 333.74 726.19 332.63 734.33C332.3 736.74 330.99 738.63 330.07 740.73C329.64 741.73 328.39 741.72 327.74 740.81C326.46 739.01 325.19 737.19 323.98 735.35C321.72 731.9 318.93 728.89 315.99 726.03C310.7 720.88 304.91 716.31 299.29 711.55C297.22 709.8 295.12 708.05 292.8 706.57C289.25 704.31 285.84 701.83 282.35 699.48C279.74 697.71 277.13 695.94 274.45 694.27C271.15 692.2 267.8 690.22 264.46 688.24C258.39 684.63 252.32 681.02 246.23 677.46C242.59 675.34 238.9 673.31 235.24 671.22C234.33 670.7 233.54 669.91 232.59 669.52C229.55 668.27 226.92 666.29 223.98 664.87C218.95 662.45 214.56 658.88 209.38 656.71C209.19 656.63 208.99 656.54 208.83 656.4C206.14 654.16 202.94 652.76 200 650.92C197.59 649.41 195.08 648.04 192.84 646.32C188.83 643.25 184.12 641.2 180.44 637.66C180.15 637.38 179.71 637.25 179.35 637.03C178.36 636.43 177.34 635.87 176.41 635.19C174.8 634.02 173.24 632.77 171.65 631.55C169.07 629.56 166.35 627.73 163.95 625.54C159.28 621.29 154.41 617.25 150.1 612.61C148.52 610.91 146.83 609.33 145.29 607.6C143.47 605.55 141.74 603.43 140.02 601.3C138.83 599.83 137.55 598.4 136.57 596.8C134.59 593.56 132.28 590.56 130.32 587.3C128.31 583.96 126.35 580.56 124.73 577.05C122.35 571.9 120.41 566.54 119.29 560.92C118.62 557.6 118.24 554.27 118.38 550.88C118.48 548.56 118.59 546.24 118.69 543.93C118.88 539.38 119.61 534.96 121.08 530.62C122.55 526.28 125 522.79 128.61 520.01C129.74 519.14 130.88 518.91 132.15 519.19C135.59 519.96 138.79 521.31 141.48 523.63C143.07 525 144.55 526.51 146.02 528.03C150.76 532.92 154.28 538.65 157.3 544.7C158.23 546.57 159.19 548.47 159.6 550.57C159.85 551.84 160.57 552.9 161.34 553.91C161.6 554.25 161.96 554.47 162.43 554.4C163.04 554.3 163.33 553.85 163.4 553.31C163.5 552.48 163.53 551.63 163.58 550.79C163.75 547.82 163.22 544.92 162.86 541.99C162.34 537.8 161.69 533.67 159.95 529.77C159.04 527.73 157.67 525.98 156.62 524.04C154.56 520.25 151.44 517.41 148.39 514.54C144.59 510.97 139.98 508.59 135.35 506.3C133.65 505.46 131.78 504.99 129.86 504.9C124.7 504.66 119.54 504.44 114.37 504.82C113.43 504.89 112.48 504.99 111.56 505.2C107.64 506.1 103.98 507.73 100.34 509.37C98.2401 510.32 96.2201 511.5 94.2601 512.73C92.4001 513.9 90.6401 515.24 88.8901 516.57C86.9501 518.04 85.2401 519.75 83.9201 521.82C83.7601 522.07 83.5001 522.39 83.7801 522.66C83.9801 522.86 84.3101 523.02 84.5901 523.03C85.6501 523.06 86.6701 522.91 87.6501 522.39C91.1901 520.52 95.0901 519.55 98.7601 518C99.4101 517.73 100.2 517.77 100.93 517.76C101.2 517.76 101.54 517.96 101.73 518.17C102.06 518.56 101.86 519.01 101.56 519.3C100.67 520.19 99.7101 521.01 98.8001 521.89C96.2701 524.33 94.5501 527.39 92.6301 530.27C91.5501 531.9 91.0101 533.9 90.2801 535.76C90.1001 536.23 90.1401 536.79 90.1101 537.31C90.0901 537.77 90.6001 538.1 90.9701 537.86C91.6701 537.4 92.5001 537.01 92.9901 536.38C94.8101 534.03 96.9901 532.04 99.0801 529.96C103.02 526.05 107.47 522.94 112.98 521.62C113.84 521.41 114.81 520.47 115.48 521.62C115.98 522.47 115 523.14 114.56 523.81C114.22 524.33 113.68 524.7 113.25 525.17C112.82 525.63 112.37 526.08 112.03 526.61C110.72 528.65 109.49 530.74 108.17 532.77C106.22 535.76 105.27 539.04 104.97 542.58C104.63 546.59 104.84 550.59 104.85 554.59C104.88 561.12 106.54 567.33 108.81 573.36C110.59 578.08 112.56 582.72 114.92 587.21C117.17 591.51 119.77 595.59 122.37 599.65C123.89 602.02 125.68 604.27 127.38 606.54C130.66 610.95 134.42 614.89 138.09 618.94C139.93 620.97 141.98 622.79 143.87 624.78C146.27 627.31 148.72 629.77 151.45 631.94C154.16 634.09 156.32 636.91 159.47 638.54C159.92 638.77 160.25 639.24 160.66 639.58C161.72 640.45 162.75 641.35 163.85 642.15C167.25 644.64 170.77 646.96 174.07 649.58C176.8 651.75 179.87 653.38 182.69 655.4C186.03 657.78 189.61 659.81 193.1 661.97C195.78 663.64 198.41 665.41 201.19 666.9C204.34 668.59 207.47 670.31 210.52 672.19C213.47 674.02 216.42 675.89 219.53 677.41C222.39 678.8 225.09 680.41 227.77 682.08C228.48 682.53 229.22 682.94 229.95 683.35C233.26 685.2 236.58 687.01 239.87 688.9C245.16 691.95 250.62 694.7 255.69 698.12C256.12 698.41 256.65 698.54 257.13 698.77C257.7 699.04 258.35 699.22 258.81 699.62C261.05 701.57 263.77 702.8 266.24 704.37C269.79 706.63 273.42 708.78 276.98 711.03C280.8 713.45 284.71 715.79 288.28 718.55C291.61 721.12 295.41 723.05 298.44 726.01C298.51 726.08 298.61 726.14 298.71 726.18C301.02 727.31 302.83 729.14 304.73 730.76C308.89 734.31 312.94 738.01 316.59 742.11C319.77 745.68 322.33 749.63 323.78 754.23C324.13 755.33 324.45 756.46 324.93 757.51C326.2 760.3 327.27 763.15 327.93 766.15C328.27 767.69 328.64 769.24 329.48 770.61C330.19 771.76 331.24 771.8 331.98 770.68C333.06 769.06 333.59 767.23 333.71 765.32C333.86 762.9 333.94 760.47 333.9 758.05C333.86 756.01 334.43 754.33 336.05 753.04C336.63 752.58 337.09 751.96 337.7 751.57C340.05 750.08 341.8 747.94 343.68 745.98C347.75 741.74 351.57 737.25 356.04 733.39C359.3 730.57 362.43 727.58 365.71 724.78C368.59 722.32 371.59 719.99 374.59 717.68C377.67 715.31 380.82 713.02 383.94 710.71C388.34 707.45 392.99 704.56 397.62 701.64C399.67 700.35 401.65 698.93 403.74 697.72C407.93 695.29 412.18 692.97 416.4 690.59C417.5 689.97 418.5 689.12 419.66 688.67C423.69 687.08 427.38 684.8 431.28 682.96C434.61 681.4 438 679.95 441.22 678.13C443.31 676.94 445.68 676.27 447.89 675.27C450.47 674.1 453.02 672.84 455.57 671.59C458.6 670.11 461.62 668.62 464.64 667.13C467.66 665.63 470.75 664.26 473.66 662.57C479.12 659.4 484.52 656.11 489.86 652.75C492.08 651.35 494.17 649.72 496.2 648.05C498.47 646.18 500.57 644.12 502.79 642.19C505.9 639.48 508.67 636.45 511.38 633.36C514.65 629.62 516.97 625.21 519.7 621.1C519.98 620.67 520.15 620.14 520.27 619.64C520.53 618.6 521.04 617.69 521.56 616.77C523.59 613.18 525.07 609.33 526.43 605.46C527.69 601.89 528.47 598.16 529.6 594.54C530.93 590.26 531.35 585.83 531.44 581.44C531.6 574.28 531.69 567.1 530.88 559.96C530.5 556.61 530.47 553.22 529.14 550.04C528.98 549.66 528.9 549.23 528.85 548.81C528.81 548.5 528.84 548.18 528.87 547.87C528.94 547.18 529.72 546.77 530.26 547.12C530.44 547.23 530.6 547.37 530.77 547.49C531.49 548.05 532.2 549.33 533.06 548.79C534.13 548.11 533.1 546.92 532.91 545.95C532.77 545.2 532.3 544.63 531.84 544.04C531.2 543.21 530.65 542.31 530.02 541.46C527.5 538.1 525.21 534.55 522.17 531.6C521.63 531.08 521.15 530.52 520.99 529.77C520.95 529.6 521.01 529.33 521.12 529.22C521.24 529.1 521.53 529.01 521.68 529.06C524.16 529.99 526.42 531.37 528.53 532.92C530.71 534.54 532.98 536.03 535.04 537.85C536.69 539.32 538.44 540.68 539.9 542.34C541.84 544.55 543.71 546.82 545.64 549.04C546.31 549.81 546.89 550.75 548.07 550.86C549.09 549.81 548.46 548.66 548.1 547.66C546.97 544.5 546.06 541.22 543.82 538.56C543.22 537.85 542.82 536.95 542.42 536.09C542.07 535.31 541.64 534.61 541.08 533.96C539.49 532.14 537.79 530.39 536.38 528.44C535.19 526.81 534.15 525.15 532.16 524.39C531.89 524.29 531.67 523.99 531.46 523.76C530.13 522.27 528.84 520.74 526.88 520.02C524.36 517.67 521.19 516.41 518.15 514.99C515.87 513.92 513.41 513.21 510.82 513.22C506.92 513.23 503.02 513.2 499.12 513.29C496.25 513.36 493.48 513.97 490.86 515.2Z" fill="#6ABD45"/>
<path d="M150.88 489.28C149.79 489.2 148.8 489.54 147.81 489.9C147.41 490.04 147.3 490.69 147.64 490.92C148.94 491.83 150.29 492.63 151.89 492.88C153.36 493.11 154.79 493.49 156.06 494.27C158.66 495.86 161.23 497.5 163.81 499.12C164.43 499.51 165.01 499.97 165.65 500.32C168.33 501.8 170.73 503.68 173.17 505.52C176.1 507.72 178.78 510.23 182.07 511.98C183.89 512.95 185.76 513.45 187.45 513.87C188.13 513.97 188.57 513.94 188.8 513.53C189.02 513.13 188.84 512.72 188.64 512.34C187.84 510.83 186.72 509.57 185.51 508.4C183.76 506.73 181.91 505.16 180.16 503.49C177.03 500.52 173.53 498.01 170.13 495.39C166.03 492.24 161.08 490.99 156.22 489.65C154.53 489.21 152.66 489.41 150.88 489.28Z" fill="#6ABD45"/>
<path d="M264.11 607.55C262.29 606.39 260.16 606.09 258.12 605.7C254.8 605.07 251.61 604.08 248.38 603.13C245.12 602.18 242.66 599.57 239.26 598.99C238.98 598.94 238.73 598.65 238.49 598.46C235.45 596.04 232.53 593.46 230.02 590.49C228.72 588.96 227.21 587.67 225.87 586.2C225.02 585.27 223.96 584.61 222.52 584.25C222.44 585.38 222.97 586.14 223.43 586.95C225.52 590.61 228.03 593.99 230.31 597.52C231.76 599.75 233.61 601.6 235.32 603.59C236.47 604.93 238 605.89 239.66 606.66C243.24 608.33 247.01 609.09 250.9 609.55C254.59 609.98 258.25 609.47 261.93 609.49C262.67 609.5 263.41 609.42 264.05 608.99C264.31 608.82 264.64 608.64 264.56 608.29C264.5 608.02 264.33 607.69 264.11 607.55Z" fill="#6ABD45"/>
<path d="M272.54 427.7C276.81 431.29 280.41 435.54 284.15 439.64C286.34 442.04 288.2 444.73 290.15 447.34C290.99 448.46 291.96 449.37 293.19 450.01C293.57 450.21 294.1 449.87 294.09 449.45C294.05 448.43 293.28 446 292.24 444.48C290.29 441.62 288.76 438.51 286.73 435.69C283.36 431 279.29 427.15 274.32 424.27C272.98 423.49 271.6 422.64 269.98 422.49C269.43 422.44 268.98 423.05 269.23 423.53C270.06 425.14 271.16 426.54 272.54 427.7Z" fill="#6ABD45"/>
<path d="M200.36 522.81C200.85 522.78 201.33 522.47 201.79 522.24C202.14 522.06 202.16 521.39 201.83 521.16C200.43 520.2 198.9 519.52 197.29 519.02C191.85 517.35 186.35 516.04 180.61 516C179.87 516 179.14 515.98 178.4 516C177.55 516.03 176.73 516.21 176.01 516.69C175.66 516.92 175.33 517.17 175.27 517.64C175.2 518.17 175.59 518.42 175.94 518.59C177.17 519.21 178.45 519.64 179.84 519.74C180.47 519.78 181.1 519.82 181.72 519.93C186.89 520.85 192.05 521.82 197.22 522.71C198.24 522.89 199.32 522.87 200.36 522.81Z" fill="#6ABD45"/>
<path d="M355.72 450.19C360.81 449.13 365.33 446.55 370.14 444.78C371.18 444.4 372.78 443.85 372.58 442.66C372.3 441.08 370.49 441.86 369.44 441.5C368.85 441.55 368.31 441.54 367.8 441.64C364.28 442.31 360.83 443.24 357.54 444.67C356.19 445.26 354.96 446.06 353.93 447.16C352.65 448.53 352.16 449.58 352.74 450.1C353.68 450.93 354.7 450.4 355.72 450.19Z" fill="#6ABD45"/>
<path d="M421.51 586.88C417.19 588.01 413.46 590.43 409.5 592.35C408.16 593 407.39 594.36 406.84 595.76C406.66 596.21 406.9 596.57 407.37 596.71C407.99 596.89 408.63 596.84 409.22 596.6C410.57 596.04 411.94 595.51 413.26 594.87C416 593.55 418.64 592.01 421.45 590.87C423.42 590.07 425.15 588.91 427.01 587.97C427.17 587.89 427.24 587.65 427.5 587.28C427.29 587.15 427.05 586.91 426.77 586.84C425.03 586.37 423.28 586.42 421.51 586.88Z" fill="#6ABD45"/>
<path d="M210.09 580.11C211.8 581.93 213.66 583.7 215.86 584.98C216.31 585.24 216.78 585.48 217.26 585.69C217.67 585.87 218.09 585.5 218.09 585.06C218.08 583.8 217.38 582.9 216.58 582.04C212.58 577.71 208.23 573.75 203.72 569.96C202.61 569.03 201.41 568.21 199.31 567.91C200.92 570.34 202.16 572.27 203.84 573.88C205.95 575.93 208.07 577.96 210.09 580.11Z" fill="#6ABD45"/>
<path d="M146.15 486.65C147.34 487.14 148.59 487.28 149.86 487.27C151.75 487.26 153.65 487.27 155.54 487.27C155.54 487.25 155.54 487.23 155.54 487.21C157.75 487.21 159.96 487.25 162.17 487.19C163.11 487.16 164.04 486.93 164.97 486.75C165.41 486.66 165.75 486.34 165.75 485.88C165.75 485.61 165.56 485.26 165.34 485.08C164.34 484.28 163.21 483.83 161.93 483.58C158.24 482.87 154.57 483.4 150.92 483.67C149.17 483.8 147.56 484.78 146 485.65C145.87 485.73 145.79 486.03 145.81 486.21C145.83 486.37 146 486.58 146.15 486.65Z" fill="#6ABD45"/>
<path d="M191.58 570.57C194.33 573.37 197.88 575.07 200.95 577.43C201.35 577.74 201.9 577.86 202.39 578.03C202.68 578.13 203.01 578.2 203.25 577.92C203.56 577.54 203.46 577.15 203.23 576.77C202.13 574.97 200.88 573.31 199.04 572.19C196.89 570.88 194.76 569.55 192.63 568.22C192.08 567.88 191.47 567.74 190.76 567.72C190.43 567.74 189.93 567.63 189.8 568.14C189.74 568.39 189.86 568.78 190.04 568.99C190.53 569.55 191.07 570.04 191.58 570.57Z" fill="#6ABD45"/>
<path d="M178.23 570.67C177.9 570.69 177.78 570.67 177.7 570.71C177.44 570.85 177.06 570.96 176.98 571.17C176.9 571.39 177.04 571.81 177.22 571.98C178.68 573.35 180.27 574.49 182.29 574.9C182.72 574.99 183.11 574.86 183.37 574.48C183.57 574.17 183.45 573.86 183.27 573.61C181.97 571.84 180.18 570.92 178.23 570.67Z" fill="#6ABD45"/>
<path d="M303.96 306.67C300.14 303.19 295.82 300.34 291.3 297.82C290.21 297.21 289.02 296.67 287.81 296.37C285.35 295.77 282.85 295.32 280.36 296.37C279.45 296.75 278.7 297.26 278.29 298.2C277.36 300.33 277.18 302.57 278.12 304.66C279.24 307.14 280.46 309.62 282.36 311.65C283.87 313.26 285.41 314.85 286.99 316.39C290.76 320.07 294.76 323.5 298.91 326.74C300.9 328.29 303.03 329.66 305.14 331.05C305.82 331.5 306.64 331.76 307.87 332.32C307.64 331.47 307.57 331.18 307.49 330.89C306.91 328.99 305.34 327.8 304.14 326.36C300.85 322.39 297.44 318.53 294.17 314.54C292.98 313.08 292.04 311.41 291.05 309.81C290.84 309.47 290.91 308.96 291.31 308.68C291.71 308.4 292.08 308.56 292.45 308.82C293.22 309.38 293.95 310 294.78 310.45C298.5 312.46 301.64 315.28 305.06 317.7C308.13 319.88 310.93 322.45 313.9 324.78C314.72 325.42 315.73 325.82 316.66 326.29C317.03 326.48 317.5 326.1 317.52 325.67C317.56 324.58 317.19 323.63 316.7 322.67C313.51 316.48 309.05 311.3 303.96 306.67Z" fill="#6ABD45"/>
<path d="M301.41 336.29C298.05 334.99 294.8 335.32 291.71 337.09C290.41 337.83 289.94 339.11 289.81 340.44C290.17 341.76 289.95 343.24 290.97 344.1C292.85 345.68 295.05 346.69 297.56 346.8C297.85 346.81 298.23 346.71 298.24 346.33C298.25 346.04 298.18 345.65 297.99 345.48C297.45 344.99 296.82 344.61 296.25 344.15C295.37 343.45 295.23 342.6 295.81 341.65C296.5 340.51 297.49 339.77 298.77 339.44C299.8 339.17 300.78 338.8 301.6 338.1C302.24 337.56 302.16 336.58 301.41 336.29Z" fill="#6ABD45"/>
</svg>
